<svg width="419" height="308" viewBox="0 0 419 308" fill="none" xmlns="http://www.w3.org/2000/svg">
<line x1="-3.4237e-08" y1="96.8904" x2="417" y2="96.8904" stroke="black"/>
<path d="M66.2168 97.4744L66.2168 111.39L61.5293 111.39L61.5293 75.8435L74.6396 75.8435C78.5296 75.8435 81.5732 76.8364 83.7705 78.8221C85.984 80.8077 87.0908 83.4363 87.0908 86.7078C87.0908 90.1583 86.0085 92.8194 83.8438 94.6912C81.6953 96.5467 78.611 97.4744 74.5908 97.4744L66.2168 97.4744ZM66.2168 93.6414L74.6396 93.6414C77.1462 93.6414 79.0667 93.0555 80.4014 91.8836C81.736 90.6954 82.4033 88.9864 82.4033 86.7566C82.4033 84.6407 81.736 82.948 80.4014 81.6785C79.0667 80.409 77.2357 79.7498 74.9082 79.701L66.2168 79.701L66.2168 93.6414ZM108.38 111.39C108.119 110.87 107.908 109.942 107.745 108.607C105.646 110.788 103.139 111.879 100.226 111.879C97.6214 111.879 95.4811 111.146 93.8047 109.681C92.1445 108.2 91.3145 106.329 91.3145 104.066C91.3145 101.316 92.3561 99.1834 94.4395 97.6697C96.5391 96.1398 99.485 95.3748 103.277 95.3748L107.672 95.3748L107.672 93.2996C107.672 91.7208 107.2 90.4676 106.256 89.5398C105.312 88.5958 103.92 88.1238 102.081 88.1238C100.47 88.1238 99.1188 88.5307 98.0283 89.3445C96.9378 90.1583 96.3926 91.143 96.3926 92.2986L91.8516 92.2986C91.8516 90.9803 92.3154 89.7107 93.2432 88.49C94.1872 87.253 95.4567 86.2765 97.0518 85.5603C98.6631 84.8442 100.429 84.4861 102.35 84.4861C105.393 84.4861 107.778 85.2511 109.503 86.781C111.228 88.2947 112.123 90.3862 112.188 93.0555L112.188 105.214C112.188 107.639 112.498 109.567 113.116 111L113.116 111.39L108.38 111.39ZM100.885 107.948C102.301 107.948 103.644 107.582 104.913 106.849C106.183 106.117 107.102 105.165 107.672 103.993L107.672 98.573L104.132 98.573C98.598 98.573 95.8311 100.192 95.8311 103.431C95.8311 104.847 96.3031 105.954 97.2471 106.752C98.1911 107.549 99.4036 107.948 100.885 107.948ZM123.541 84.9744L123.688 88.2947C125.706 85.7556 128.342 84.4861 131.598 84.4861C137.18 84.4861 139.996 87.6355 140.045 93.9344L140.045 111.39L135.528 111.39L135.528 93.9099C135.512 92.0056 135.073 90.5978 134.21 89.6863C133.364 88.7749 132.037 88.3191 130.23 88.3191C128.766 88.3191 127.48 88.7097 126.373 89.491C125.266 90.2722 124.404 91.2976 123.785 92.5672L123.785 111.39L119.269 111.39L119.269 84.9744L123.541 84.9744ZM145.66 97.9383C145.66 95.3504 146.165 93.0229 147.174 90.9558C148.199 88.8888 149.615 87.2937 151.422 86.1707C153.245 85.0476 155.32 84.4861 157.647 84.4861C161.244 84.4861 164.15 85.7312 166.363 88.2215C168.593 90.7117 169.708 94.0239 169.708 98.158L169.708 98.4754C169.708 101.047 169.212 103.358 168.219 105.409C167.242 107.443 165.834 109.03 163.995 110.17C162.172 111.309 160.073 111.879 157.696 111.879C154.116 111.879 151.21 110.634 148.98 108.143C146.767 105.653 145.66 102.357 145.66 98.2556L145.66 97.9383ZM150.201 98.4754C150.201 101.405 150.877 103.757 152.228 105.531C153.595 107.305 155.418 108.192 157.696 108.192C159.991 108.192 161.814 107.297 163.165 105.507C164.516 103.7 165.191 101.177 165.191 97.9383C165.191 95.0411 164.5 92.6974 163.116 90.907C161.749 89.1004 159.926 88.1971 157.647 88.1971C155.418 88.1971 153.619 89.0841 152.252 90.8582C150.885 92.6323 150.201 95.1713 150.201 98.4754ZM188.141 89.0271C187.457 88.9132 186.716 88.8562 185.919 88.8562C182.957 88.8562 180.947 90.1176 179.889 92.6404L179.889 111.39L175.372 111.39L175.372 84.9744L179.767 84.9744L179.84 88.0262C181.321 85.6661 183.421 84.4861 186.139 84.4861C187.018 84.4861 187.685 84.6 188.141 84.8279L188.141 89.0271ZM207.647 111.39C207.387 110.87 207.175 109.942 207.013 108.607C204.913 110.788 202.407 111.879 199.493 111.879C196.889 111.879 194.749 111.146 193.072 109.681C191.412 108.2 190.582 106.329 190.582 104.066C190.582 101.316 191.624 99.1834 193.707 97.6697C195.807 96.1398 198.753 95.3748 202.545 95.3748L206.939 95.3748L206.939 93.2996C206.939 91.7208 206.467 90.4676 205.523 89.5398C204.579 88.5958 203.188 88.1238 201.349 88.1238C199.737 88.1238 198.386 88.5307 197.296 89.3445C196.205 90.1583 195.66 91.143 195.66 92.2986L191.119 92.2986C191.119 90.9803 191.583 89.7107 192.511 88.49C193.455 87.253 194.724 86.2765 196.319 85.5603C197.931 84.8442 199.697 84.4861 201.617 84.4861C204.661 84.4861 207.045 85.2511 208.771 86.781C210.496 88.2947 211.391 90.3862 211.456 93.0555L211.456 105.214C211.456 107.639 211.765 109.567 212.384 111L212.384 111.39L207.647 111.39ZM200.152 107.948C201.568 107.948 202.911 107.582 204.181 106.849C205.45 106.117 206.37 105.165 206.939 103.993L206.939 98.573L203.399 98.573C197.866 98.573 195.099 100.192 195.099 103.431C195.099 104.847 195.571 105.954 196.515 106.752C197.459 107.549 198.671 107.948 200.152 107.948ZM222.784 84.9744L222.906 87.9041C224.843 85.6254 227.455 84.4861 230.743 84.4861C234.438 84.4861 236.952 85.9021 238.287 88.7342C239.166 87.4646 240.305 86.4392 241.705 85.658C243.121 84.8767 244.789 84.4861 246.71 84.4861C252.504 84.4861 255.45 87.5541 255.548 93.6902L255.548 111.39L251.031 111.39L251.031 93.9588C251.031 92.0707 250.6 90.6629 249.737 89.7351C248.875 88.7911 247.426 88.3191 245.392 88.3191C243.715 88.3191 242.324 88.8237 241.217 89.8328C240.11 90.8256 239.467 92.1684 239.288 93.8611L239.288 111.39L234.747 111.39L234.747 94.0808C234.747 90.2397 232.867 88.3191 229.107 88.3191C226.145 88.3191 224.119 89.5805 223.028 92.1033L223.028 111.39L218.512 111.39L218.512 84.9744L222.784 84.9744ZM278.692 111.39C278.432 110.87 278.22 109.942 278.058 108.607C275.958 110.788 273.451 111.879 270.538 111.879C267.934 111.879 265.794 111.146 264.117 109.681C262.457 108.2 261.627 106.329 261.627 104.066C261.627 101.316 262.669 99.1834 264.752 97.6697C266.852 96.1398 269.798 95.3748 273.59 95.3748L277.984 95.3748L277.984 93.2996C277.984 91.7208 277.512 90.4676 276.568 89.5398C275.624 88.5958 274.233 88.1238 272.394 88.1238C270.782 88.1238 269.431 88.5307 268.341 89.3445C267.25 90.1583 266.705 91.143 266.705 92.2986L262.164 92.2986C262.164 90.9803 262.628 89.7107 263.556 88.49C264.5 87.253 265.769 86.2765 267.364 85.5603C268.976 84.8442 270.742 84.4861 272.662 84.4861C275.706 84.4861 278.09 85.2511 279.815 86.781C281.541 88.2947 282.436 90.3862 282.501 93.0555L282.501 105.214C282.501 107.639 282.81 109.567 283.429 111L283.429 111.39L278.692 111.39ZM271.197 107.948C272.613 107.948 273.956 107.582 275.226 106.849C276.495 106.117 277.415 105.165 277.984 103.993L277.984 98.573L274.444 98.573C268.91 98.573 266.144 100.192 266.144 103.431C266.144 104.847 266.616 105.954 267.56 106.752C268.504 107.549 269.716 107.948 271.197 107.948Z" fill="white"/>
<path d="M322.931 102.65C322.931 100.681 322.239 99.1264 320.855 97.9871C319.472 96.8315 316.941 95.741 313.263 94.7156C309.584 93.6739 306.899 92.5428 305.206 91.3221C302.797 89.5968 301.593 87.3344 301.593 84.5349C301.593 81.8168 302.708 79.6114 304.938 77.9187C307.184 76.2097 310.048 75.3553 313.531 75.3553C315.891 75.3553 317.999 75.811 319.854 76.7224C321.726 77.6339 323.175 78.9034 324.2 80.531C325.226 82.1586 325.738 83.9734 325.738 85.9754L322.711 85.9754C322.711 83.5502 321.881 81.6053 320.221 80.1404C318.561 78.6593 316.331 77.9187 313.531 77.9187C310.813 77.9187 308.648 78.5291 307.037 79.7498C305.426 80.9542 304.62 82.533 304.62 84.4861C304.62 86.2928 305.344 87.7657 306.793 88.9051C308.242 90.0444 310.561 91.0535 313.751 91.9324C316.941 92.795 319.358 93.6984 321.002 94.6424C322.646 95.5701 323.883 96.685 324.713 97.9871C325.543 99.2892 325.958 100.827 325.958 102.601C325.958 105.401 324.835 107.647 322.589 109.34C320.359 111.032 317.413 111.879 313.751 111.879C311.244 111.879 308.941 111.431 306.842 110.536C304.758 109.641 303.172 108.387 302.081 106.776C301.007 105.165 300.47 103.317 300.47 101.234L303.473 101.234C303.473 103.741 304.409 105.718 306.28 107.167C308.152 108.615 310.642 109.34 313.751 109.34C316.518 109.34 318.74 108.729 320.416 107.509C322.092 106.288 322.931 104.668 322.931 102.65ZM341.998 111.879C339.752 111.879 337.717 111.325 335.895 110.219C334.088 109.112 332.68 107.574 331.671 105.604C330.662 103.619 330.157 101.397 330.157 98.9392L330.157 97.8894C330.157 95.3504 330.646 93.0636 331.622 91.0291C332.615 88.9946 333.99 87.3995 335.748 86.2439C337.506 85.0721 339.41 84.4861 341.461 84.4861C344.667 84.4861 347.206 85.5847 349.078 87.782C350.966 89.963 351.91 92.9497 351.91 96.742L351.91 98.3777L333.063 98.3777L333.063 98.9392C333.063 101.934 333.917 104.432 335.626 106.434C337.351 108.42 339.516 109.413 342.12 109.413C343.683 109.413 345.058 109.128 346.246 108.558C347.451 107.989 348.541 107.077 349.518 105.824L351.349 107.216C349.2 110.324 346.083 111.879 341.998 111.879ZM341.461 86.9763C339.264 86.9763 337.408 87.782 335.895 89.3933C334.397 91.0047 333.486 93.1694 333.16 95.8875L349.005 95.8875L349.005 95.5701C348.924 93.031 348.199 90.964 346.832 89.3689C345.465 87.7739 343.674 86.9763 341.461 86.9763ZM374.273 111.39C373.98 110.56 373.793 109.331 373.712 107.704C372.687 109.039 371.376 110.072 369.781 110.804C368.202 111.521 366.526 111.879 364.752 111.879C362.213 111.879 360.154 111.171 358.575 109.755C357.013 108.339 356.231 106.548 356.231 104.384C356.231 101.812 357.298 99.7775 359.43 98.2801C361.578 96.7827 364.565 96.034 368.39 96.034L373.688 96.034L373.688 93.031C373.688 91.143 373.102 89.6619 371.93 88.5877C370.774 87.4972 369.081 86.9519 366.852 86.9519C364.817 86.9519 363.132 87.4728 361.798 88.5144C360.463 89.5561 359.796 90.8094 359.796 92.2742L356.866 92.2498C356.866 90.1502 357.843 88.3354 359.796 86.8055C361.749 85.2592 364.15 84.4861 366.998 84.4861C369.944 84.4861 372.263 85.2267 373.956 86.7078C375.665 88.1726 376.544 90.2234 376.593 92.8601L376.593 105.36C376.593 107.915 376.861 109.828 377.398 111.097L377.398 111.39L374.273 111.39ZM365.094 109.291C367.047 109.291 368.788 108.819 370.318 107.875C371.865 106.931 372.988 105.669 373.688 104.091L373.688 98.2801L368.463 98.2801C365.549 98.3126 363.271 98.8497 361.627 99.8914C359.983 100.917 359.161 102.333 359.161 104.139C359.161 105.621 359.706 106.849 360.797 107.826C361.904 108.803 363.336 109.291 365.094 109.291Z" fill="#545C61"/>
<path d="M206.856 159.132C205.584 159.132 204.432 158.772 203.4 158.052C202.392 157.356 201.588 156.336 200.988 154.992C200.412 153.624 200.124 152.028 200.124 150.204C200.124 147.204 200.88 144.132 202.392 140.988C203.904 137.844 205.812 135.252 208.116 133.212C210.444 131.148 212.712 130.116 214.92 130.116C216.192 130.116 217.128 130.5 217.728 131.268C218.352 132.036 218.664 133.008 218.664 134.184C218.664 135.024 218.52 135.852 218.232 136.668C217.944 137.484 217.548 138.156 217.044 138.684C216.564 139.188 216.048 139.44 215.496 139.44C215.016 139.44 214.644 139.164 214.38 138.612C214.74 138.372 215.136 137.928 215.568 137.28C216.024 136.632 216.408 135.924 216.72 135.156C217.032 134.388 217.188 133.704 217.188 133.104C217.188 132.528 217.008 132.072 216.648 131.736C216.312 131.376 215.772 131.196 215.028 131.196C213.372 131.196 211.596 132.276 209.7 134.436C207.804 136.596 206.208 139.236 204.912 142.356C203.64 145.476 203.004 148.332 203.004 150.924C203.004 153.06 203.448 154.752 204.336 156C205.248 157.272 206.412 157.908 207.828 157.908C209.028 157.908 210.156 157.344 211.212 156.216C212.268 155.088 213.132 153.672 213.804 151.968C214.5 150.264 214.908 148.608 215.028 147C213.636 146.688 212.4 146.532 211.32 146.532L209.124 146.568C209.412 145.32 210.228 144.696 211.572 144.696C212.148 144.696 212.724 144.78 213.3 144.948C213.9 145.116 214.716 145.38 215.748 145.74C216.348 146.004 216.984 146.22 217.656 146.388L217.404 147.54C216.564 149.748 215.988 151.524 215.676 152.868C215.364 154.188 215.208 155.34 215.208 156.324C215.208 156.708 215.232 157.26 215.28 157.98C215.328 158.46 215.352 158.844 215.352 159.132C214.056 158.628 213.408 157.764 213.408 156.54C213.408 156.012 213.492 155.46 213.66 154.884C211.62 157.716 209.352 159.132 206.856 159.132ZM221.966 157.08C221.174 157.08 220.526 156.72 220.022 156C219.518 155.304 219.266 154.452 219.266 153.444C219.266 152.556 219.446 151.464 219.806 150.168C220.19 148.848 220.634 147.708 221.138 146.748C221.666 145.764 222.098 145.272 222.434 145.272C222.578 145.272 222.782 145.344 223.046 145.488C223.334 145.632 223.574 145.8 223.766 145.992C223.262 146.784 222.734 147.924 222.182 149.412C221.63 150.876 221.354 152.148 221.354 153.228C221.354 153.78 221.438 154.32 221.606 154.848C221.798 155.376 222.146 155.64 222.65 155.64C223.49 155.64 224.402 154.872 225.386 153.336C226.394 151.776 227.474 149.808 228.626 147.432L229.202 146.244C230.354 146.46 230.93 146.772 230.93 147.18C230.93 147.228 230.87 147.396 230.75 147.684C230.654 147.948 230.558 148.188 230.462 148.404C229.91 149.628 229.442 150.78 229.058 151.86C228.698 152.916 228.518 153.816 228.518 154.56C228.518 155.52 228.914 156 229.706 156C230.234 156 230.858 155.772 231.578 155.316C232.298 154.836 233.03 154.152 233.774 153.264C234.518 152.376 235.166 151.344 235.718 150.168L236.186 150.492C235.682 151.764 235.022 152.904 234.206 153.912C233.414 154.896 232.55 155.664 231.614 156.216C230.678 156.792 229.79 157.08 228.95 157.08C227.27 157.08 226.43 156.192 226.43 154.416C226.43 153.936 226.514 153.336 226.682 152.616C225.914 153.984 225.146 155.076 224.378 155.892C223.61 156.684 222.806 157.08 221.966 157.08ZM238.939 157.584C237.523 157.584 236.431 157.188 235.663 156.396C234.919 155.628 234.547 154.632 234.547 153.408C234.547 151.992 235.015 150.468 235.951 148.836C236.887 147.204 238.063 145.836 239.479 144.732C240.919 143.604 242.323 143.04 243.691 143.04C245.179 143.04 245.923 143.772 245.923 145.236C245.923 146.412 245.479 147.516 244.591 148.548C243.703 149.556 242.563 150.384 241.171 151.032C239.779 151.68 238.387 152.076 236.995 152.22C236.899 152.628 236.851 153.06 236.851 153.516C236.851 154.38 237.067 155.1 237.499 155.676C237.931 156.252 238.663 156.54 239.695 156.54C241.159 156.54 242.635 155.928 244.123 154.704C245.611 153.48 246.823 151.968 247.759 150.168L248.191 150.492C247.231 152.628 245.899 154.344 244.195 155.64C242.491 156.936 240.739 157.584 238.939 157.584ZM237.175 151.536C238.183 151.176 239.239 150.672 240.343 150.024C241.447 149.376 242.383 148.62 243.151 147.756C243.943 146.868 244.339 145.944 244.339 144.984C244.339 144.696 244.279 144.492 244.159 144.372C244.063 144.228 243.871 144.156 243.583 144.156C242.839 144.156 242.023 144.528 241.135 145.272C240.271 146.016 239.467 146.964 238.723 148.116C238.003 149.268 237.487 150.408 237.175 151.536ZM250.819 157.836C249.259 157.836 248.119 157.368 247.399 156.432C246.679 155.496 246.319 154.392 246.319 153.12C246.319 152.16 246.487 151.488 246.823 151.104C247.159 150.696 247.519 150.408 247.903 150.24C248.311 150.072 248.551 149.952 248.623 149.88C250.159 148.2 251.347 146.46 252.187 144.66L252.187 144.228C252.187 143.412 252.319 142.8 252.583 142.392C252.871 141.984 253.207 141.78 253.591 141.78C253.783 141.78 253.927 141.828 254.023 141.924C254.119 141.996 254.167 142.104 254.167 142.248C254.167 142.344 254.131 142.548 254.059 142.86C253.987 143.148 253.951 143.472 253.951 143.832C253.951 144.312 254.011 144.828 254.131 145.38C254.275 145.908 254.491 146.604 254.779 147.468C255.115 148.5 255.367 149.4 255.535 150.168C255.727 150.936 255.823 151.716 255.823 152.508C255.823 153.132 255.751 153.72 255.607 154.272C256.471 154.128 257.275 153.744 258.019 153.12C258.763 152.472 259.471 151.5 260.143 150.204L260.467 150.564C260.035 151.812 259.375 152.796 258.487 153.516C257.599 154.236 256.579 154.68 255.427 154.848C255.067 155.832 254.479 156.576 253.663 157.08C252.847 157.584 251.899 157.836 250.819 157.836ZM253.339 154.236C253.435 153.612 253.483 153.048 253.483 152.544C253.483 151.824 253.423 151.104 253.303 150.384C253.183 149.664 253.003 148.836 252.763 147.9C252.547 146.94 252.415 146.316 252.367 146.028C251.143 148.044 249.979 149.604 248.875 150.708C249.259 151.548 249.835 152.292 250.603 152.94C251.395 153.588 252.307 154.02 253.339 154.236ZM250.891 156.576C251.995 156.576 252.751 155.988 253.159 154.812C252.199 154.62 251.323 154.248 250.531 153.696C249.739 153.12 249.139 152.496 248.731 151.824C248.203 151.848 247.939 152.268 247.939 153.084C247.939 153.996 248.203 154.812 248.731 155.532C249.283 156.228 250.003 156.576 250.891 156.576ZM262.509 157.656C260.373 157.656 259.305 156.468 259.305 154.092C259.305 153.06 259.485 151.788 259.845 150.276C260.229 148.74 260.745 147.12 261.393 145.416C260.817 145.32 260.385 145.224 260.097 145.128L260.097 144.48C260.961 144.576 261.489 144.624 261.681 144.624C262.737 141.888 263.865 139.524 265.065 137.532C266.289 135.516 267.249 134.508 267.945 134.508C268.137 134.508 268.305 134.58 268.449 134.724C268.617 134.868 268.701 135.06 268.701 135.3C268.701 135.612 268.545 136.068 268.233 136.668C267.945 137.268 267.441 138.192 266.721 139.44C266.601 139.68 266.229 140.352 265.605 141.456C264.981 142.536 264.417 143.628 263.913 144.732L265.245 144.732C267.237 144.732 268.953 144.66 270.393 144.516L270.393 145.164C267.777 145.452 265.665 145.596 264.057 145.596L263.517 145.596C262.197 148.62 261.537 151.236 261.537 153.444C261.537 154.476 261.693 155.22 262.005 155.676C262.317 156.108 262.833 156.324 263.553 156.324C264.777 156.324 265.989 155.784 267.189 154.704C268.389 153.6 269.457 152.088 270.393 150.168L270.861 150.528C269.973 152.616 268.773 154.332 267.261 155.676C265.749 156.996 264.165 157.656 262.509 157.656ZM281.046 159.132C281.358 157.38 281.79 155.472 282.342 153.408C282.894 151.344 283.782 148.44 285.006 144.696L282.63 144.948C282.654 143.892 283.65 143.16 285.618 142.752C286.506 140.04 287.526 137.028 288.678 133.716C288.702 133.644 288.786 133.38 288.93 132.924C289.098 132.468 289.182 132.024 289.182 131.592C289.182 131.4 289.146 131.268 289.074 131.196C289.026 131.124 288.894 131.088 288.678 131.088C287.934 131.088 287.214 131.472 286.518 132.24C285.846 133.008 285.294 133.932 284.862 135.012C284.43 136.092 284.214 137.04 284.214 137.856C284.214 138.312 284.274 138.72 284.394 139.08C283.65 139.08 283.098 138.9 282.738 138.54C282.402 138.156 282.234 137.652 282.234 137.028C282.234 135.996 282.63 134.94 283.422 133.86C284.238 132.756 285.222 131.856 286.374 131.16C287.526 130.44 288.546 130.08 289.434 130.08C290.034 130.08 290.454 130.248 290.694 130.584C290.958 130.896 291.09 131.304 291.09 131.808C291.09 132.216 290.994 132.732 290.802 133.356L287.994 142.5C288.858 142.452 289.554 142.428 290.082 142.428C291.954 142.428 293.994 142.536 296.202 142.752C296.946 140.28 297.654 138.024 298.326 135.984C299.022 133.944 299.526 132.6 299.838 131.952C300.414 130.704 301.074 130.08 301.818 130.08C301.338 131.352 300.75 133.164 300.054 135.516C299.382 137.868 298.71 140.328 298.038 142.896C298.278 142.896 298.662 142.92 299.19 142.968C299.91 143.016 300.426 143.04 300.738 143.04C300.258 143.544 299.79 143.868 299.334 144.012C298.878 144.132 298.338 144.192 297.714 144.192C297.21 146.256 296.838 147.9 296.598 149.124C295.806 152.892 295.41 155.796 295.41 157.836C295.41 158.268 295.434 158.7 295.482 159.132C294.57 159.036 293.922 158.772 293.538 158.34C293.178 157.932 292.998 157.26 292.998 156.324C292.998 154.932 293.286 153.12 293.862 150.888C294.246 149.304 294.882 147.084 295.77 144.228C293.85 144.228 292.218 144.252 290.874 144.3C289.554 144.324 288.39 144.384 287.382 144.48C285.318 150.984 284.034 155.1 283.53 156.828C283.29 157.596 282.93 158.172 282.45 158.556C281.97 158.94 281.502 159.132 281.046 159.132ZM302.82 157.152C301.836 157.152 301.116 156.852 300.66 156.252C300.204 155.652 299.976 154.86 299.976 153.876C299.976 152.892 300.18 151.86 300.588 150.78C300.996 149.7 301.524 148.8 302.172 148.08C302.82 147.36 303.468 147 304.116 147C304.332 147 304.584 147.06 304.872 147.18C304.584 147.42 304.236 147.948 303.828 148.764C303.42 149.58 303.06 150.456 302.748 151.392C302.46 152.304 302.316 153.048 302.316 153.624C302.316 154.992 302.748 155.676 303.612 155.676C304.116 155.676 304.716 155.412 305.412 154.884C306.108 154.356 306.792 153.66 307.464 152.796C306.792 152.244 306.264 151.524 305.88 150.636C305.52 149.748 305.34 148.824 305.34 147.864C305.34 146.616 305.652 145.548 306.276 144.66C306.924 143.772 307.788 143.328 308.868 143.328C309.78 143.328 310.416 143.58 310.776 144.084C311.16 144.564 311.352 145.236 311.352 146.1C311.352 147.012 311.124 148.044 310.668 149.196C310.236 150.324 309.66 151.428 308.94 152.508C309.372 152.748 309.828 152.868 310.308 152.868C311.004 152.868 311.724 152.664 312.468 152.256C313.212 151.824 313.776 151.164 314.16 150.276L314.592 150.636C314.136 151.692 313.488 152.472 312.648 152.976C311.808 153.48 310.944 153.732 310.056 153.732C309.408 153.732 308.832 153.612 308.328 153.372C307.464 154.5 306.54 155.412 305.556 156.108C304.596 156.804 303.684 157.152 302.82 157.152ZM308.112 151.86C308.736 150.924 309.24 149.976 309.624 149.016C310.008 148.032 310.2 147.132 310.2 146.316C310.2 145.644 310.092 145.14 309.876 144.804C309.684 144.468 309.432 144.3 309.12 144.3C308.784 144.3 308.436 144.468 308.076 144.804C307.74 145.116 307.452 145.56 307.212 146.136C306.996 146.688 306.888 147.3 306.888 147.972C306.888 148.716 306.984 149.436 307.176 150.132C307.392 150.804 307.704 151.38 308.112 151.86ZM316.184 157.08C315.392 157.08 314.744 156.72 314.24 156C313.736 155.304 313.484 154.452 313.484 153.444C313.484 152.556 313.664 151.464 314.024 150.168C314.408 148.848 314.852 147.708 315.356 146.748C315.884 145.764 316.316 145.272 316.652 145.272C316.796 145.272 317 145.344 317.264 145.488C317.552 145.632 317.792 145.8 317.984 145.992C317.48 146.784 316.952 147.924 316.4 149.412C315.848 150.876 315.572 152.148 315.572 153.228C315.572 153.78 315.656 154.32 315.824 154.848C316.016 155.376 316.364 155.64 316.868 155.64C317.708 155.64 318.62 154.872 319.604 153.336C320.612 151.776 321.692 149.808 322.844 147.432L323.42 146.244C324.572 146.46 325.148 146.772 325.148 147.18C325.148 147.228 325.088 147.396 324.968 147.684C324.872 147.948 324.776 148.188 324.68 148.404C324.128 149.628 323.66 150.78 323.276 151.86C322.916 152.916 322.736 153.816 322.736 154.56C322.736 155.52 323.132 156 323.924 156C324.452 156 325.076 155.772 325.796 155.316C326.516 154.836 327.248 154.152 327.992 153.264C328.736 152.376 329.384 151.344 329.936 150.168L330.404 150.492C329.9 151.764 329.24 152.904 328.424 153.912C327.632 154.896 326.768 155.664 325.832 156.216C324.896 156.792 324.008 157.08 323.168 157.08C321.488 157.08 320.648 156.192 320.648 154.416C320.648 153.936 320.732 153.336 320.9 152.616C320.132 153.984 319.364 155.076 318.596 155.892C317.828 156.684 317.024 157.08 316.184 157.08ZM333.05 157.836C331.49 157.836 330.35 157.368 329.63 156.432C328.91 155.496 328.55 154.392 328.55 153.12C328.55 152.16 328.718 151.488 329.054 151.104C329.39 150.696 329.75 150.408 330.134 150.24C330.542 150.072 330.782 149.952 330.854 149.88C332.39 148.2 333.578 146.46 334.418 144.66L334.418 144.228C334.418 143.412 334.55 142.8 334.814 142.392C335.102 141.984 335.438 141.78 335.822 141.78C336.014 141.78 336.158 141.828 336.254 141.924C336.35 141.996 336.398 142.104 336.398 142.248C336.398 142.344 336.362 142.548 336.29 142.86C336.218 143.148 336.182 143.472 336.182 143.832C336.182 144.312 336.242 144.828 336.362 145.38C336.506 145.908 336.722 146.604 337.01 147.468C337.346 148.5 337.598 149.4 337.766 150.168C337.958 150.936 338.054 151.716 338.054 152.508C338.054 153.132 337.982 153.72 337.838 154.272C338.702 154.128 339.506 153.744 340.25 153.12C340.994 152.472 341.702 151.5 342.374 150.204L342.698 150.564C342.266 151.812 341.606 152.796 340.718 153.516C339.83 154.236 338.81 154.68 337.658 154.848C337.298 155.832 336.71 156.576 335.894 157.08C335.078 157.584 334.13 157.836 333.05 157.836ZM335.57 154.236C335.666 153.612 335.714 153.048 335.714 152.544C335.714 151.824 335.654 151.104 335.534 150.384C335.414 149.664 335.234 148.836 334.994 147.9C334.778 146.94 334.646 146.316 334.598 146.028C333.374 148.044 332.21 149.604 331.106 150.708C331.49 151.548 332.066 152.292 332.834 152.94C333.626 153.588 334.538 154.02 335.57 154.236ZM333.122 156.576C334.226 156.576 334.982 155.988 335.39 154.812C334.43 154.62 333.554 154.248 332.762 153.696C331.97 153.12 331.37 152.496 330.962 151.824C330.434 151.848 330.17 152.268 330.17 153.084C330.17 153.996 330.434 154.812 330.962 155.532C331.514 156.228 332.234 156.576 333.122 156.576ZM345.568 157.584C344.152 157.584 343.06 157.188 342.292 156.396C341.548 155.628 341.176 154.632 341.176 153.408C341.176 151.992 341.644 150.468 342.58 148.836C343.516 147.204 344.692 145.836 346.108 144.732C347.548 143.604 348.952 143.04 350.32 143.04C351.808 143.04 352.552 143.772 352.552 145.236C352.552 146.412 352.108 147.516 351.22 148.548C350.332 149.556 349.192 150.384 347.8 151.032C346.408 151.68 345.016 152.076 343.624 152.22C343.528 152.628 343.48 153.06 343.48 153.516C343.48 154.38 343.696 155.1 344.128 155.676C344.56 156.252 345.292 156.54 346.324 156.54C347.788 156.54 349.264 155.928 350.752 154.704C352.24 153.48 353.452 151.968 354.388 150.168L354.82 150.492C353.86 152.628 352.528 154.344 350.824 155.64C349.12 156.936 347.368 157.584 345.568 157.584ZM343.804 151.536C344.812 151.176 345.868 150.672 346.972 150.024C348.076 149.376 349.012 148.62 349.78 147.756C350.572 146.868 350.968 145.944 350.968 144.984C350.968 144.696 350.908 144.492 350.788 144.372C350.692 144.228 350.5 144.156 350.212 144.156C349.468 144.156 348.652 144.528 347.764 145.272C346.9 146.016 346.096 146.964 345.352 148.116C344.632 149.268 344.116 150.408 343.804 151.536Z" fill="#545C61"/>
</svg>
