<svg width="1133" height="584" viewBox="0 0 1133 584" fill="none" xmlns="http://www.w3.org/2000/svg">
<path d="M179.841 195.594H953.159" stroke="black" stroke-width="0.68254"/>
<path d="M454.668 69.432C454.056 69.679 447.632 76.2153 447.717 76.5142C447.75 76.6403 447.407 76.9302 446.842 77.2237C446.168 77.5665 445.263 78.3396 443.615 80.0417C442.217 81.4867 441.095 82.4847 440.733 82.6327C440.167 82.8631 439.754 82.7431 440.051 82.4382C440.345 82.133 439.932 82.0132 439.335 82.2441C438.675 82.5075 438.493 82.9213 439.107 82.7693C439.311 82.7187 439.47 82.7478 439.455 82.7954C439.44 82.8746 439.383 83.255 439.294 83.6358C439.207 84.0482 439.246 84.4586 439.357 84.5675C439.487 84.6919 439.522 84.9127 439.476 85.0556C439.4 85.1991 439.465 85.3246 439.607 85.3381C439.75 85.3517 439.826 85.1765 439.776 85.0035C439.724 84.7671 439.834 84.6231 440.038 84.5725C440.557 84.4534 442.782 82.189 442.806 81.7776C442.834 81.5559 443.455 80.8187 444.327 80.0145C445.152 79.2267 445.633 78.6974 445.414 78.7957C444.785 79.0903 445.299 78.5604 446.144 78.0726C446.521 77.8453 447.099 77.4727 447.396 77.2624C448.038 76.7938 455.066 69.5996 455.077 69.3938C455.061 69.315 454.888 69.3336 454.668 69.432Z" fill="#747D86"/>
<path d="M432.01 84.8268C431.047 85.9172 430.303 86.8775 430.354 86.9874C430.418 87.1128 430.25 87.4159 429.999 87.6729C429.519 88.1705 429.619 88.5168 430.168 88.2708C430.341 88.189 430.609 88.2322 430.771 88.3877C430.932 88.5433 431.487 88.6451 431.993 88.6369C433.052 88.6043 433.419 88.8355 433.143 89.3459C432.989 89.6329 433.02 89.6323 433.302 89.375C433.488 89.1822 433.595 88.9434 433.53 88.8181C433.463 88.6925 433.788 88.2289 434.27 87.7313C435.641 86.3816 435.952 86.1235 436.269 86.1502C436.444 86.1949 436.52 86.0829 436.468 85.815C436.332 85.2164 436.173 85.1557 435.8 85.5412C435.613 85.7338 434.925 86.1873 434.283 86.5612C433.124 87.212 433.093 87.2125 432.514 86.6526C431.806 85.9683 431.867 85.746 433.219 84.3493C433.981 83.5624 434.166 83.2749 433.988 83.1038C433.795 82.9172 433.452 83.2072 432.01 84.8268Z" fill="#747D86"/>
<path d="M436.863 89.5237C435.492 90.8418 434.934 91.5146 434.83 91.9116C434.623 92.7368 434.419 92.8508 433.968 92.4153C433.743 92.1977 433.504 92.0907 433.412 92.1871C433.334 92.2674 433.4 92.4876 433.577 92.6587C433.851 92.9231 433.79 93.0822 433.276 93.612C432.826 94.0776 432.718 94.3164 432.896 94.4875C433.072 94.6586 433.323 94.5281 433.914 93.9179C435.142 92.6495 435.138 93.2978 433.925 94.6134C432.495 96.1537 432.013 96.5567 431.757 96.4342C431.487 96.3279 430.29 97.5641 430.483 97.7508C430.676 97.9375 431.893 96.9696 433.996 94.9916C435.6 93.496 435.644 93.4161 435.34 93.1206C435.034 92.8252 435.095 92.6977 435.935 91.8307C436.449 91.3009 436.803 90.8051 436.707 90.7117C436.611 90.6184 437.059 90.0265 437.79 89.2717C439.719 87.2807 438.962 87.4826 436.863 89.5237Z" fill="#747D86"/>
<path d="M463.955 304.638C463.877 304.72 463.623 304.629 463.399 304.41C463.172 304.194 462.935 304.086 462.84 304.182C462.763 304.262 462.382 304.173 462.032 303.99C461.44 303.667 461.474 303.73 462.308 304.507C462.998 305.113 463.286 305.298 463.378 305.074C463.454 304.9 463.677 304.991 464.063 305.365C464.4 305.692 464.53 305.942 464.372 305.975C464.215 306.01 464.443 306.355 464.973 306.867C465.583 307.458 465.806 307.581 465.739 307.297C465.654 306.967 465.702 306.95 465.943 307.184C466.088 307.325 466.153 307.512 466.06 307.609C465.826 307.85 467.111 308.999 467.456 308.867C467.692 308.784 467.725 308.815 467.649 309.055C467.482 309.483 467.77 309.668 468.736 309.731L469.607 309.798L466.859 307.138C465.14 305.475 464.05 304.542 463.955 304.638Z" fill="#747D86"/>
<g filter="url(#filter0_d)">
<path d="M302.639 196.676V222.476H293.946V156.573H318.259C325.472 156.573 331.117 158.414 335.192 162.095C339.297 165.777 341.349 170.65 341.349 176.715C341.349 183.113 339.342 188.046 335.328 191.517C331.343 194.956 325.623 196.676 318.168 196.676H302.639ZM302.639 189.57H318.259C322.907 189.57 326.469 188.484 328.944 186.311C331.419 184.108 332.656 180.94 332.656 176.806C332.656 172.883 331.419 169.745 328.944 167.391C326.469 165.038 323.073 163.816 318.757 163.725H302.639V189.57ZM380.829 222.476C380.345 221.51 379.954 219.79 379.652 217.317C375.759 221.36 371.11 223.381 365.708 223.381C360.878 223.381 356.909 222.024 353.8 219.308C350.721 216.562 349.182 213.091 349.182 208.898C349.182 203.797 351.113 199.845 354.977 197.038C358.871 194.201 364.334 192.783 371.366 192.783H379.516V188.936C379.516 186.009 378.641 183.686 376.89 181.966C375.14 180.216 372.558 179.341 369.148 179.341C366.16 179.341 363.655 180.095 361.632 181.604C359.61 183.113 358.599 184.938 358.599 187.08H350.178C350.178 184.636 351.038 182.283 352.759 180.02C354.509 177.726 356.863 175.916 359.822 174.588C362.81 173.26 366.084 172.596 369.647 172.596C375.29 172.596 379.713 174.015 382.912 176.851C386.111 179.658 387.771 183.535 387.891 188.484V211.024C387.891 215.52 388.466 219.096 389.612 221.751V222.476H380.829ZM366.93 216.095C369.556 216.095 372.047 215.414 374.4 214.057C376.755 212.7 378.459 210.933 379.516 208.762V198.714H372.952C362.689 198.714 357.558 201.715 357.558 207.72C357.558 210.346 358.433 212.398 360.184 213.876C361.934 215.355 364.183 216.095 366.93 216.095ZM408.945 173.502L409.218 179.658C412.96 174.95 417.849 172.596 423.887 172.596C434.238 172.596 439.461 178.435 439.551 190.113V222.476H431.175V190.069C431.145 186.537 430.331 183.927 428.731 182.237C427.162 180.548 424.701 179.703 421.35 179.703C418.635 179.703 416.25 180.427 414.197 181.875C412.144 183.324 410.546 185.225 409.398 187.579V222.476H401.023V173.502H408.945ZM449.964 197.537C449.964 192.739 450.901 188.423 452.772 184.591C454.673 180.759 457.299 177.802 460.65 175.72C464.031 173.637 467.879 172.596 472.194 172.596C478.865 172.596 484.254 174.905 488.358 179.522C492.493 184.139 494.561 190.278 494.561 197.944V198.532C494.561 203.301 493.641 207.585 491.8 211.388C489.988 215.159 487.377 218.101 483.966 220.213C480.586 222.326 476.693 223.381 472.285 223.381C465.646 223.381 460.257 221.073 456.121 216.456C452.017 211.84 449.964 205.729 449.964 198.124V197.537ZM458.386 198.532C458.386 203.964 459.639 208.325 462.145 211.614C464.68 214.903 468.06 216.547 472.285 216.547C476.541 216.547 479.922 214.888 482.427 211.567C484.932 208.219 486.184 203.542 486.184 197.537C486.184 192.166 484.903 187.82 482.336 184.501C479.801 181.151 476.42 179.476 472.194 179.476C468.06 179.476 464.724 181.121 462.189 184.41C459.654 187.699 458.386 192.407 458.386 198.532ZM528.744 181.015C527.476 180.804 526.102 180.699 524.624 180.699C519.131 180.699 515.403 183.037 513.441 187.714V222.476H505.065V173.502H513.215L513.35 179.16C516.097 174.784 519.991 172.596 525.032 172.596C526.662 172.596 527.899 172.808 528.744 173.23V181.015ZM564.918 222.476C564.436 221.51 564.043 219.79 563.742 217.317C559.848 221.36 555.2 223.381 549.796 223.381C544.967 223.381 540.999 222.024 537.889 219.308C534.81 216.562 533.271 213.091 533.271 208.898C533.271 203.797 535.204 199.845 539.066 197.038C542.961 194.201 548.424 192.783 555.456 192.783H563.605V188.936C563.605 186.009 562.73 183.686 560.979 181.966C559.228 180.216 556.649 179.341 553.238 179.341C550.249 179.341 547.744 180.095 545.722 181.604C543.699 183.113 542.688 184.938 542.688 187.08H534.267C534.267 184.636 535.128 182.283 536.849 180.02C538.599 177.726 540.952 175.916 543.91 174.588C546.9 173.26 550.175 172.596 553.735 172.596C559.38 172.596 563.802 174.015 567.002 176.851C570.201 179.658 571.861 183.535 571.982 188.484V211.024C571.982 215.52 572.555 219.096 573.703 221.751V222.476H564.918ZM551.019 216.095C553.645 216.095 556.135 215.414 558.49 214.057C560.844 212.7 562.55 210.933 563.605 208.762V198.714H557.04C546.779 198.714 541.648 201.715 541.648 207.72C541.648 210.346 542.523 212.398 544.274 213.876C546.024 215.355 548.272 216.095 551.019 216.095ZM592.989 173.502L593.215 178.933C596.808 174.709 601.651 172.596 607.749 172.596C614.601 172.596 619.263 175.222 621.739 180.472C623.369 178.119 625.481 176.217 628.078 174.769C630.704 173.321 633.797 172.596 637.359 172.596C648.104 172.596 653.568 178.284 653.749 189.661V222.476H645.373V190.158C645.373 186.658 644.573 184.048 642.973 182.328C641.374 180.578 638.687 179.703 634.915 179.703C631.805 179.703 629.226 180.638 627.173 182.509C625.12 184.35 623.927 186.839 623.595 189.978V222.476H615.174V190.384C615.174 183.263 611.688 179.703 604.715 179.703C599.222 179.703 595.465 182.041 593.442 186.719V222.476H585.067V173.502H592.989ZM696.669 222.476C696.187 221.51 695.794 219.79 695.494 217.317C691.599 221.36 686.95 223.381 681.548 223.381C676.719 223.381 672.75 222.024 669.64 219.308C666.562 216.562 665.023 213.091 665.023 208.898C665.023 203.797 666.955 199.845 670.818 197.038C674.712 194.201 680.176 192.783 687.208 192.783H695.356V188.936C695.356 186.009 694.481 183.686 692.73 181.966C690.98 180.216 688.4 179.341 684.99 179.341C682 179.341 679.495 180.095 677.474 181.604C675.45 183.113 674.44 184.938 674.44 187.08H666.019C666.019 184.636 666.879 182.283 668.6 180.02C670.351 177.726 672.704 175.916 675.662 174.588C678.651 173.26 681.926 172.596 685.487 172.596C691.132 172.596 695.553 174.015 698.752 176.851C701.953 179.658 703.613 183.535 703.733 188.484V211.024C703.733 215.52 704.306 219.096 705.454 221.751V222.476H696.669ZM682.77 216.095C685.396 216.095 687.887 215.414 690.242 214.057C692.595 212.7 694.301 210.933 695.356 208.762V198.714H688.792C678.529 198.714 673.399 201.715 673.399 207.72C673.399 210.346 674.275 212.398 676.025 213.876C677.776 215.355 680.024 216.095 682.77 216.095Z" fill="white"/>
</g>
<g filter="url(#filter1_d)">
<path d="M778.71 206.273C778.71 202.62 777.427 199.739 774.86 197.627C772.295 195.484 767.602 193.463 760.781 191.561C753.958 189.631 748.979 187.533 745.839 185.27C741.372 182.072 739.139 177.877 739.139 172.687C739.139 167.648 741.207 163.559 745.342 160.421C749.507 157.252 754.819 155.668 761.278 155.668C765.654 155.668 769.564 156.513 773.004 158.203C776.475 159.893 779.162 162.246 781.063 165.264C782.966 168.281 783.915 171.646 783.915 175.358H778.302C778.302 170.861 776.763 167.255 773.684 164.54C770.606 161.794 766.47 160.421 761.278 160.421C756.237 160.421 752.222 161.552 749.235 163.816C746.247 166.048 744.752 168.975 744.752 172.596C744.752 175.946 746.095 178.677 748.782 180.789C751.469 182.901 755.77 184.772 761.686 186.402C767.602 188.002 772.084 189.676 775.133 191.426C778.181 193.146 780.475 195.214 782.015 197.627C783.554 200.041 784.323 202.893 784.323 206.182C784.323 211.371 782.241 215.537 778.076 218.674C773.94 221.812 768.477 223.381 761.686 223.381C757.037 223.381 752.766 222.552 748.873 220.893C745.008 219.232 742.067 216.909 740.044 213.922C738.052 210.933 737.056 207.509 737.056 203.647H742.625C742.625 208.293 744.361 211.96 747.831 214.645C751.302 217.331 755.92 218.674 761.686 218.674C766.817 218.674 770.938 217.543 774.046 215.279C777.154 213.015 778.71 210.014 778.71 206.273ZM814.069 223.381C809.904 223.381 806.13 222.356 802.751 220.303C799.4 218.251 796.789 215.4 794.918 211.749C793.047 208.067 792.11 203.95 792.11 199.392V197.446C792.11 192.739 793.017 188.499 794.827 184.727C796.669 180.955 799.218 177.998 802.479 175.855C805.739 173.683 809.27 172.596 813.073 172.596C819.019 172.596 823.727 174.633 827.199 178.707C830.7 182.75 832.451 188.287 832.451 195.319V198.351H797.499V199.392C797.499 204.945 799.083 209.576 802.252 213.288C805.451 216.97 809.466 218.809 814.295 218.809C817.194 218.809 819.744 218.283 821.947 217.226C824.182 216.169 826.203 214.48 828.015 212.157L831.41 214.736C827.425 220.5 821.645 223.381 814.069 223.381ZM813.073 177.213C808.999 177.213 805.557 178.707 802.751 181.694C799.973 184.682 798.284 188.695 797.679 193.734H827.064V193.146C826.913 188.439 825.569 184.606 823.034 181.649C820.499 178.692 817.177 177.213 813.073 177.213ZM873.922 222.476C873.379 220.937 873.032 218.659 872.882 215.641C870.981 218.116 868.55 220.033 865.592 221.39C862.664 222.717 859.556 223.381 856.266 223.381C851.557 223.381 847.739 222.068 844.811 219.443C841.914 216.818 840.464 213.499 840.464 209.485C840.464 204.719 842.443 200.946 846.396 198.171C850.38 195.393 855.919 194.007 863.013 194.007H872.838V188.439C872.838 184.938 871.751 182.192 869.577 180.201C867.434 178.179 864.294 177.168 860.16 177.168C856.386 177.168 853.262 178.134 850.788 180.065C848.312 181.996 847.075 184.319 847.075 187.036L841.642 186.989C841.642 183.098 843.453 179.733 847.075 176.896C850.697 174.03 855.15 172.596 860.431 172.596C865.894 172.596 870.195 173.97 873.335 176.715C876.504 179.431 878.134 183.233 878.225 188.122V211.297C878.225 216.034 878.722 219.578 879.718 221.933V222.476H873.922ZM856.9 218.583C860.522 218.583 863.751 217.708 866.588 215.958C869.457 214.208 871.539 211.87 872.838 208.942V198.171H863.148C857.744 198.23 853.52 199.226 850.471 201.157C847.422 203.058 845.898 205.683 845.898 209.033C845.898 211.779 846.908 214.057 848.931 215.869C850.984 217.678 853.64 218.583 856.9 218.583Z" fill="white"/>
</g>
<path d="M550.47 289.464C548.111 289.464 545.975 288.796 544.061 287.461C542.192 286.171 540.701 284.28 539.588 281.788C538.52 279.252 537.986 276.293 537.986 272.912C537.986 267.35 539.388 261.654 542.192 255.825C544.996 249.997 548.534 245.191 552.807 241.409C557.124 237.582 561.33 235.669 565.424 235.669C567.783 235.669 569.519 236.381 570.632 237.805C571.789 239.229 572.368 241.031 572.368 243.211C572.368 244.768 572.101 246.303 571.566 247.816C571.032 249.329 570.298 250.575 569.363 251.554C568.473 252.488 567.516 252.955 566.493 252.955C565.602 252.955 564.913 252.444 564.423 251.42C565.091 250.975 565.825 250.152 566.626 248.951C567.472 247.749 568.184 246.437 568.763 245.013C569.341 243.589 569.63 242.321 569.63 241.209C569.63 240.141 569.297 239.295 568.629 238.672C568.006 238.005 567.004 237.671 565.625 237.671C562.554 237.671 559.26 239.674 555.744 243.678C552.228 247.683 549.268 252.577 546.865 258.362C544.506 264.146 543.327 269.441 543.327 274.246C543.327 278.206 544.15 281.343 545.797 283.657C547.488 286.015 549.647 287.195 552.273 287.195C554.498 287.195 556.59 286.149 558.548 284.058C560.506 281.966 562.109 279.341 563.355 276.182C564.646 273.023 565.402 269.953 565.625 266.971C563.043 266.393 560.751 266.104 558.748 266.104L554.676 266.171C555.21 263.857 556.723 262.7 559.216 262.7C560.284 262.7 561.352 262.856 562.42 263.167C563.533 263.479 565.046 263.968 566.96 264.635C568.073 265.125 569.252 265.525 570.498 265.837L570.031 267.973C568.473 272.066 567.405 275.359 566.826 277.851C566.248 280.298 565.959 282.434 565.959 284.258C565.959 284.97 566.003 285.993 566.092 287.328C566.181 288.218 566.226 288.93 566.226 289.464C563.822 288.529 562.621 286.928 562.621 284.658C562.621 283.679 562.776 282.656 563.088 281.588C559.305 286.839 555.099 289.464 550.47 289.464ZM578.491 285.659C577.022 285.659 575.821 284.992 574.886 283.657C573.951 282.367 573.484 280.787 573.484 278.918C573.484 277.272 573.818 275.248 574.485 272.845C575.198 270.398 576.021 268.284 576.956 266.504C577.935 264.68 578.736 263.768 579.359 263.768C579.626 263.768 580.004 263.901 580.494 264.168C581.028 264.435 581.473 264.747 581.829 265.103C580.895 266.571 579.915 268.684 578.892 271.443C577.868 274.157 577.356 276.516 577.356 278.518C577.356 279.541 577.512 280.542 577.824 281.521C578.18 282.5 578.825 282.99 579.76 282.99C581.317 282.99 583.009 281.566 584.833 278.718C586.703 275.826 588.706 272.177 590.842 267.772L591.91 265.57C594.046 265.97 595.115 266.549 595.115 267.305C595.115 267.394 595.003 267.706 594.781 268.24C594.603 268.729 594.425 269.174 594.247 269.574C593.223 271.844 592.355 273.979 591.643 275.982C590.975 277.94 590.642 279.608 590.642 280.987C590.642 282.767 591.376 283.657 592.845 283.657C593.824 283.657 594.981 283.234 596.316 282.389C597.652 281.499 599.009 280.231 600.389 278.585C601.769 276.938 602.97 275.025 603.994 272.845L604.862 273.445C603.927 275.804 602.703 277.917 601.19 279.786C599.721 281.61 598.119 283.034 596.383 284.058C594.647 285.125 593.001 285.659 591.443 285.659C588.327 285.659 586.769 284.013 586.769 280.72C586.769 279.831 586.925 278.718 587.237 277.383C585.813 279.92 584.388 281.944 582.964 283.457C581.54 284.925 580.049 285.659 578.491 285.659ZM609.967 286.594C607.341 286.594 605.316 285.86 603.892 284.391C602.512 282.967 601.822 281.121 601.822 278.852C601.822 276.226 602.69 273.401 604.426 270.375C606.162 267.35 608.343 264.813 610.969 262.767C613.639 260.675 616.243 259.63 618.78 259.63C621.539 259.63 622.919 260.987 622.919 263.701C622.919 265.881 622.095 267.928 620.449 269.841C618.802 271.71 616.688 273.245 614.106 274.447C611.525 275.648 608.943 276.382 606.362 276.649C606.184 277.406 606.095 278.206 606.095 279.052C606.095 280.654 606.496 281.989 607.297 283.056C608.098 284.124 609.455 284.658 611.369 284.658C614.084 284.658 616.821 283.524 619.581 281.254C622.34 278.985 624.588 276.182 626.324 272.845L627.125 273.445C625.344 277.406 622.874 280.587 619.714 282.99C616.554 285.392 613.305 286.594 609.967 286.594ZM606.696 275.381C608.565 274.714 610.524 273.779 612.571 272.578C614.618 271.376 616.354 269.975 617.778 268.373C619.247 266.727 619.981 265.014 619.981 263.234C619.981 262.7 619.87 262.322 619.648 262.099C619.47 261.832 619.113 261.699 618.579 261.699C617.2 261.699 615.686 262.388 614.04 263.768C612.437 265.147 610.946 266.905 609.567 269.04C608.231 271.176 607.274 273.29 606.696 275.381ZM631.998 287.061C629.105 287.061 626.991 286.193 625.656 284.458C624.321 282.723 623.653 280.676 623.653 278.318C623.653 276.538 623.965 275.292 624.588 274.58C625.211 273.824 625.879 273.29 626.591 272.978C627.347 272.667 627.792 272.444 627.926 272.311C630.774 269.196 632.978 265.97 634.535 262.633V261.832C634.535 260.319 634.78 259.185 635.27 258.428C635.804 257.672 636.427 257.294 637.139 257.294C637.495 257.294 637.762 257.383 637.94 257.561C638.118 257.694 638.207 257.894 638.207 258.161C638.207 258.339 638.14 258.718 638.007 259.296C637.873 259.83 637.807 260.431 637.807 261.098C637.807 261.988 637.918 262.945 638.14 263.968C638.407 264.947 638.808 266.237 639.342 267.839C639.965 269.752 640.433 271.421 640.744 272.845C641.1 274.269 641.278 275.715 641.278 277.183C641.278 278.34 641.145 279.43 640.878 280.453C642.48 280.187 643.971 279.475 645.351 278.318C646.73 277.116 648.043 275.314 649.29 272.912L649.89 273.579C649.089 275.893 647.865 277.717 646.218 279.052C644.572 280.387 642.68 281.21 640.544 281.521C639.876 283.346 638.786 284.725 637.272 285.659C635.759 286.594 634.001 287.061 631.998 287.061ZM636.672 280.387C636.85 279.23 636.939 278.184 636.939 277.25C636.939 275.915 636.827 274.58 636.605 273.245C636.382 271.91 636.049 270.375 635.603 268.64C635.203 266.86 634.958 265.703 634.869 265.169C632.599 268.907 630.441 271.799 628.393 273.846C629.105 275.403 630.174 276.783 631.598 277.984C633.067 279.185 634.758 279.986 636.672 280.387ZM632.132 284.725C634.179 284.725 635.581 283.635 636.338 281.455C634.558 281.099 632.933 280.409 631.464 279.386C629.996 278.318 628.883 277.161 628.126 275.915C627.147 275.959 626.657 276.738 626.657 278.251C626.657 279.942 627.147 281.455 628.126 282.789C629.15 284.08 630.485 284.725 632.132 284.725ZM653.677 286.727C649.716 286.727 647.735 284.525 647.735 280.12C647.735 278.206 648.069 275.848 648.737 273.045C649.449 270.197 650.406 267.194 651.608 264.035C650.539 263.857 649.738 263.679 649.204 263.501V262.299C650.806 262.477 651.786 262.566 652.142 262.566C654.1 257.494 656.192 253.111 658.417 249.418C660.687 245.68 662.467 243.812 663.758 243.812C664.114 243.812 664.426 243.945 664.693 244.212C665.004 244.479 665.16 244.835 665.16 245.28C665.16 245.858 664.871 246.704 664.292 247.816C663.758 248.929 662.824 250.642 661.488 252.955C661.266 253.4 660.576 254.646 659.419 256.693C658.261 258.695 657.216 260.72 656.281 262.767H658.751C662.445 262.767 665.627 262.633 668.298 262.366V263.568C663.447 264.101 659.53 264.368 656.548 264.368H655.547C653.099 269.975 651.875 274.825 651.875 278.918C651.875 280.832 652.164 282.211 652.743 283.056C653.321 283.857 654.278 284.258 655.613 284.258C657.883 284.258 660.131 283.257 662.356 281.254C664.582 279.208 666.562 276.404 668.298 272.845L669.166 273.512C667.519 277.383 665.294 280.565 662.49 283.056C659.686 285.504 656.748 286.727 653.677 286.727ZM688.054 289.464C688.632 286.216 689.433 282.678 690.457 278.852C691.481 275.025 693.128 269.641 695.397 262.7L690.991 263.167C691.036 261.209 692.883 259.852 696.532 259.096C698.179 254.068 700.071 248.484 702.207 242.343C702.252 242.21 702.407 241.72 702.674 240.875C702.986 240.03 703.142 239.206 703.142 238.405C703.142 238.05 703.075 237.805 702.941 237.671C702.852 237.538 702.608 237.471 702.207 237.471C700.827 237.471 699.492 238.183 698.201 239.607C696.955 241.031 695.931 242.744 695.13 244.746C694.329 246.748 693.929 248.506 693.929 250.019C693.929 250.864 694.04 251.621 694.262 252.288C692.883 252.288 691.859 251.954 691.191 251.287C690.568 250.575 690.257 249.641 690.257 248.484C690.257 246.57 690.991 244.613 692.46 242.61C693.973 240.564 695.798 238.895 697.934 237.605C700.071 236.27 701.962 235.602 703.609 235.602C704.722 235.602 705.501 235.914 705.946 236.537C706.435 237.115 706.68 237.872 706.68 238.806C706.68 239.562 706.502 240.519 706.146 241.676L700.939 258.629C702.541 258.54 703.832 258.495 704.811 258.495C708.282 258.495 712.065 258.695 716.16 259.096C717.54 254.513 718.853 250.33 720.099 246.548C721.39 242.766 722.324 240.274 722.903 239.073C723.971 236.759 725.195 235.602 726.575 235.602C725.685 237.961 724.594 241.32 723.304 245.68C722.057 250.041 720.811 254.602 719.565 259.363C720.01 259.363 720.722 259.407 721.701 259.496C723.037 259.585 723.993 259.63 724.572 259.63C723.682 260.564 722.814 261.165 721.968 261.432C721.123 261.654 720.121 261.765 718.964 261.765C718.029 265.592 717.34 268.64 716.894 270.909C715.426 277.895 714.691 283.279 714.691 287.061C714.691 287.862 714.736 288.663 714.825 289.464C713.134 289.286 711.932 288.796 711.22 287.995C710.552 287.239 710.218 285.993 710.218 284.258C710.218 281.677 710.752 278.318 711.821 274.18C712.533 271.243 713.712 267.127 715.359 261.832C711.798 261.832 708.772 261.877 706.279 261.966C703.832 262.01 701.673 262.121 699.804 262.299C695.976 274.358 693.595 281.989 692.66 285.192C692.215 286.616 691.548 287.684 690.657 288.396C689.767 289.108 688.899 289.464 688.054 289.464ZM728.433 285.793C726.608 285.793 725.273 285.237 724.427 284.124C723.582 283.012 723.159 281.544 723.159 279.719C723.159 277.895 723.537 275.982 724.294 273.979C725.051 271.977 726.03 270.309 727.231 268.974C728.433 267.639 729.635 266.971 730.836 266.971C731.237 266.971 731.704 267.083 732.238 267.305C731.704 267.75 731.059 268.729 730.302 270.242C729.546 271.755 728.878 273.379 728.3 275.114C727.765 276.805 727.498 278.184 727.498 279.252C727.498 281.788 728.3 283.056 729.902 283.056C730.836 283.056 731.949 282.567 733.24 281.588C734.531 280.609 735.799 279.319 737.045 277.717C735.799 276.694 734.82 275.359 734.108 273.712C733.44 272.066 733.106 270.353 733.106 268.573C733.106 266.26 733.685 264.279 734.842 262.633C736.044 260.987 737.646 260.164 739.649 260.164C741.34 260.164 742.52 260.631 743.187 261.565C743.899 262.455 744.255 263.701 744.255 265.303C744.255 266.994 743.833 268.907 742.987 271.043C742.186 273.134 741.118 275.181 739.782 277.183C740.584 277.628 741.429 277.851 742.319 277.851C743.61 277.851 744.945 277.472 746.325 276.716C747.705 275.915 748.751 274.691 749.463 273.045L750.264 273.712C749.418 275.67 748.217 277.116 746.659 278.051C745.101 278.985 743.499 279.452 741.852 279.452C740.65 279.452 739.582 279.23 738.648 278.785C737.045 280.876 735.332 282.567 733.507 283.857C731.727 285.148 730.035 285.793 728.433 285.793ZM738.247 275.982C739.404 274.246 740.339 272.489 741.051 270.709C741.763 268.885 742.119 267.216 742.119 265.703C742.119 264.457 741.919 263.523 741.518 262.9C741.162 262.277 740.695 261.966 740.116 261.966C739.493 261.966 738.848 262.277 738.18 262.9C737.557 263.479 737.023 264.302 736.578 265.37C736.177 266.393 735.977 267.528 735.977 268.773C735.977 270.153 736.155 271.488 736.511 272.778C736.912 274.024 737.49 275.092 738.247 275.982ZM753.216 285.659C751.748 285.659 750.546 284.992 749.611 283.657C748.677 282.367 748.209 280.787 748.209 278.918C748.209 277.272 748.543 275.248 749.211 272.845C749.923 270.398 750.746 268.284 751.681 266.504C752.66 264.68 753.461 263.768 754.084 263.768C754.351 263.768 754.73 263.901 755.219 264.168C755.753 264.435 756.198 264.747 756.554 265.103C755.62 266.571 754.641 268.684 753.617 271.443C752.593 274.157 752.081 276.516 752.081 278.518C752.081 279.541 752.237 280.542 752.549 281.521C752.905 282.5 753.55 282.99 754.485 282.99C756.043 282.99 757.734 281.566 759.559 278.718C761.428 275.826 763.431 272.177 765.567 267.772L766.635 265.57C768.772 265.97 769.84 266.549 769.84 267.305C769.84 267.394 769.729 267.706 769.506 268.24C769.328 268.729 769.15 269.174 768.972 269.574C767.948 271.844 767.08 273.979 766.368 275.982C765.701 277.94 765.367 279.608 765.367 280.987C765.367 282.767 766.101 283.657 767.57 283.657C768.549 283.657 769.706 283.234 771.042 282.389C772.377 281.499 773.734 280.231 775.114 278.585C776.494 276.938 777.695 275.025 778.719 272.845L779.587 273.445C778.652 275.804 777.428 277.917 775.915 279.786C774.446 281.61 772.844 283.034 771.108 284.058C769.373 285.125 767.726 285.659 766.168 285.659C763.052 285.659 761.495 284.013 761.495 280.72C761.495 279.831 761.65 278.718 761.962 277.383C760.538 279.92 759.114 281.944 757.689 283.457C756.265 284.925 754.774 285.659 753.216 285.659ZM784.494 287.061C781.601 287.061 779.487 286.193 778.152 284.458C776.816 282.723 776.149 280.676 776.149 278.318C776.149 276.538 776.46 275.292 777.083 274.58C777.707 273.824 778.374 273.29 779.086 272.978C779.843 272.667 780.288 272.444 780.421 272.311C783.27 269.196 785.473 265.97 787.031 262.633V261.832C787.031 260.319 787.276 259.185 787.765 258.428C788.299 257.672 788.922 257.294 789.635 257.294C789.991 257.294 790.258 257.383 790.436 257.561C790.614 257.694 790.703 257.894 790.703 258.161C790.703 258.339 790.636 258.718 790.502 259.296C790.369 259.83 790.302 260.431 790.302 261.098C790.302 261.988 790.413 262.945 790.636 263.968C790.903 264.947 791.304 266.237 791.838 267.839C792.461 269.752 792.928 271.421 793.24 272.845C793.596 274.269 793.774 275.715 793.774 277.183C793.774 278.34 793.64 279.43 793.373 280.453C794.975 280.187 796.466 279.475 797.846 278.318C799.226 277.116 800.539 275.314 801.785 272.912L802.386 273.579C801.585 275.893 800.361 277.717 798.714 279.052C797.067 280.387 795.176 281.21 793.039 281.521C792.372 283.346 791.281 284.725 789.768 285.659C788.255 286.594 786.497 287.061 784.494 287.061ZM789.167 280.387C789.345 279.23 789.434 278.184 789.434 277.25C789.434 275.915 789.323 274.58 789.1 273.245C788.878 271.91 788.544 270.375 788.099 268.64C787.698 266.86 787.454 265.703 787.365 265.169C785.095 268.907 782.936 271.799 780.889 273.846C781.601 275.403 782.669 276.783 784.093 277.984C785.562 279.185 787.253 279.986 789.167 280.387ZM784.627 284.725C786.675 284.725 788.077 283.635 788.833 281.455C787.053 281.099 785.429 280.409 783.96 279.386C782.491 278.318 781.378 277.161 780.622 275.915C779.643 275.959 779.153 276.738 779.153 278.251C779.153 279.942 779.643 281.455 780.622 282.789C781.645 284.08 782.981 284.725 784.627 284.725ZM807.708 286.594C805.082 286.594 803.057 285.86 801.633 284.391C800.253 282.967 799.563 281.121 799.563 278.852C799.563 276.226 800.431 273.401 802.167 270.375C803.903 267.35 806.084 264.813 808.71 262.767C811.38 260.675 813.984 259.63 816.521 259.63C819.28 259.63 820.66 260.987 820.66 263.701C820.66 265.881 819.837 267.928 818.19 269.841C816.543 271.71 814.429 273.245 811.847 274.447C809.266 275.648 806.685 276.382 804.103 276.649C803.925 277.406 803.836 278.206 803.836 279.052C803.836 280.654 804.237 281.989 805.038 283.056C805.839 284.124 807.196 284.658 809.11 284.658C811.825 284.658 814.562 283.524 817.322 281.254C820.081 278.985 822.329 276.182 824.065 272.845L824.866 273.445C823.086 277.406 820.615 280.587 817.455 282.99C814.295 285.392 811.046 286.594 807.708 286.594ZM804.437 275.381C806.306 274.714 808.265 273.779 810.312 272.578C812.359 271.376 814.095 269.975 815.519 268.373C816.988 266.727 817.722 265.014 817.722 263.234C817.722 262.7 817.611 262.322 817.389 262.099C817.211 261.832 816.855 261.699 816.32 261.699C814.941 261.699 813.427 262.388 811.781 263.768C810.178 265.147 808.687 266.905 807.308 269.04C805.972 271.176 805.016 273.29 804.437 275.381Z" fill="white"/>
<defs>
<filter id="filter0_d" x="289.946" y="156.573" width="419.508" height="74.8075" filterUnits="userSpaceOnUse" color-interpolation-filters="sRGB">
<feFlood flood-opacity="0" result="BackgroundImageFix"/>
<feColorMatrix in="SourceAlpha" type="matrix" values="0 0 0 0 0 0 0 0 0 0 0 0 0 0 0 0 0 0 127 0"/>
<feOffset dy="4"/>
<feGaussianBlur stdDeviation="2"/>
<feColorMatrix type="matrix" values="0 0 0 0 0 0 0 0 0 0 0 0 0 0 0 0 0 0 0.25 0"/>
<feBlend mode="normal" in2="BackgroundImageFix" result="effect1_dropShadow"/>
<feBlend mode="normal" in="SourceGraphic" in2="effect1_dropShadow" result="shape"/>
</filter>
<filter id="filter1_d" x="733.056" y="155.668" width="150.661" height="75.7129" filterUnits="userSpaceOnUse" color-interpolation-filters="sRGB">
<feFlood flood-opacity="0" result="BackgroundImageFix"/>
<feColorMatrix in="SourceAlpha" type="matrix" values="0 0 0 0 0 0 0 0 0 0 0 0 0 0 0 0 0 0 127 0"/>
<feOffset dy="4"/>
<feGaussianBlur stdDeviation="2"/>
<feColorMatrix type="matrix" values="0 0 0 0 0 0 0 0 0 0 0 0 0 0 0 0 0 0 0.25 0"/>
<feBlend mode="normal" in2="BackgroundImageFix" result="effect1_dropShadow"/>
<feBlend mode="normal" in="SourceGraphic" in2="effect1_dropShadow" result="shape"/>
</filter>
</defs>
</svg>
