<svg width="40" height="40" viewBox="0 0 40 40" fill="none" xmlns="http://www.w3.org/2000/svg">
<g clip-path="url(#clip0)">
<path d="M20.0067 9.72998C14.3351 9.72998 9.74341 14.3266 9.74341 19.9933C9.74341 25.665 14.3401 30.2567 20.0067 30.2567C25.6784 30.2567 30.2701 25.66 30.2701 19.9933C30.2701 14.3216 25.6734 9.72998 20.0067 9.72998ZM20.0067 26.655C16.3251 26.655 13.3451 23.6733 13.3451 19.9933C13.3451 16.3133 16.3267 13.3316 20.0067 13.3316C23.6867 13.3316 26.6684 16.3133 26.6684 19.9933C26.6701 23.6733 23.6884 26.655 20.0067 26.655Z" fill="white"/>
<path d="M28.2466 0.126926C24.5666 -0.0447405 15.4516 -0.0364072 11.7682 0.126926C8.53156 0.278593 5.67656 1.06026 3.37489 3.36193C-0.471776 7.20859 0.0198905 12.3919 0.0198905 19.9936C0.0198905 27.7736 -0.413443 32.8369 3.37489 36.6253C7.23656 40.4853 12.4949 39.9803 20.0066 39.9803C27.7132 39.9803 30.3732 39.9853 33.0982 38.9303C36.8032 37.4919 39.5999 34.1803 39.8732 28.2319C40.0466 24.5503 40.0366 15.4369 39.8732 11.7536C39.5432 4.73193 35.7749 0.473593 28.2466 0.126926ZM34.0716 34.0803C31.5499 36.6019 28.0516 36.3769 19.9582 36.3769C11.6249 36.3769 8.28322 36.5003 5.84489 34.0553C3.03656 31.2603 3.54489 26.7719 3.54489 19.9669C3.54489 10.7586 2.59989 4.12693 11.8416 3.65359C13.9649 3.57859 14.5899 3.55359 19.9349 3.55359L20.0099 3.60359C28.8916 3.60359 35.8599 2.67359 36.2782 11.9136C36.3732 14.0219 36.3949 14.6553 36.3949 19.9919C36.3932 28.2286 36.5499 31.5903 34.0716 34.0803Z" fill="white"/>
<path d="M30.6767 11.7233C32.0012 11.7233 33.075 10.6495 33.075 9.32497C33.075 8.0004 32.0012 6.92664 30.6767 6.92664C29.3521 6.92664 28.2783 8.0004 28.2783 9.32497C28.2783 10.6495 29.3521 11.7233 30.6767 11.7233Z" fill="white"/>
</g>
<defs>
<clipPath id="clip0">
<rect width="40" height="40" fill="white"/>
</clipPath>
</defs>
</svg>
