<svg width="38" height="38" viewBox="0 0 38 38" fill="none" xmlns="http://www.w3.org/2000/svg">
<path d="M36 26.6667C32.128 26.6667 28.44 25.824 25.04 24.1627C24.72 24.0027 24.352 23.984 24.0187 24.1013C23.6827 24.2187 23.408 24.464 23.2533 24.7813L21.1573 29.12C15.7333 26.0933 11.2427 21.6053 8.21867 16.1813L12.5547 14.08C12.8747 13.9253 13.1173 13.6507 13.2347 13.3147C13.3493 12.9813 13.328 12.6133 13.1707 12.2933C11.5093 8.89333 10.6667 5.20533 10.6667 1.33333C10.6667 0.597333 10.0693 0 9.33333 0H1.33333C0.597333 0 0 0.597333 0 1.33333C0 21.184 16.1493 37.3333 36 37.3333C36.736 37.3333 37.3333 36.736 37.3333 36V28C37.3333 27.264 36.736 26.6667 36 26.6667Z" fill="white"/>
</svg>
