<svg width="417" height="215" viewBox="0 0 417 315" fill="none" xmlns="http://www.w3.org/2000/svg">
<line x1="-3.4237e-08" y1="105.5" x2="417" y2="105.5" stroke="black"/>
<path d="M266.067 14.4423C265.899 14.6155 265.788 14.5917 265.358 14.3598C265.065 14.1939 264.662 14.0383 264.44 13.9907C264.217 13.9601 263.839 13.7956 263.59 13.6376C263.348 13.4709 262.953 13.3237 262.723 13.3018C262.501 13.2713 262.2 13.1481 262.061 13.0139C261.923 12.8797 261.631 12.782 261.375 12.7691C261.128 12.7645 260.836 12.6668 260.724 12.5577C260.611 12.4487 260.294 12.3259 260.02 12.2961C259.747 12.2664 259.429 12.1435 259.308 12.0261C259.187 11.9086 258.912 11.7936 258.698 11.7715C258.485 11.7493 258.159 11.6351 257.978 11.5271C257.797 11.4021 257.471 11.305 257.25 11.3085C257.037 11.3204 256.745 11.2228 256.624 11.1053C256.503 10.9879 256.168 10.8483 255.877 10.7847C255.586 10.7382 255.209 10.6078 255.028 10.4998C254.856 10.4002 254.59 10.3277 254.454 10.364C254.318 10.3832 254.018 10.2771 253.785 10.1188C253.561 9.96893 253.304 9.87071 253.228 9.91456C253.143 9.95002 252.895 9.91134 252.689 9.82935C252.474 9.73898 252.14 9.65051 251.944 9.62806C251.747 9.60561 251.524 9.5239 251.438 9.44001C251.36 9.36451 251.086 9.28362 250.83 9.27064C250.574 9.25767 250.273 9.15161 250.152 9.03417C250.013 8.89995 249.74 8.8361 249.45 8.85777C249.177 8.87917 248.887 8.81559 248.765 8.69815C248.661 8.59749 248.37 8.51686 248.148 8.5204C247.918 8.53259 247.661 8.46847 247.557 8.36781C247.462 8.27553 247.222 8.19409 247.026 8.18869C246.625 8.18655 245.477 7.86378 245.321 7.71279C245.26 7.65406 244.996 7.61565 244.732 7.64544C244.468 7.65818 244.177 7.61165 244.082 7.51937C243.995 7.43549 243.738 7.35432 243.516 7.3408C242.919 7.31622 241.891 7.07679 241.735 6.92579C241.666 6.85868 241.453 6.83651 241.266 6.87359C241.087 6.91907 240.788 6.86415 240.607 6.75619C240.435 6.65661 240.169 6.5841 240.042 6.61172C239.897 6.6396 239.65 6.60092 239.503 6.52651C239.357 6.4521 239.049 6.38879 238.827 6.39232C238.606 6.39586 238.384 6.36529 238.349 6.33174C238.314 6.29818 238.118 6.25869 237.913 6.2449C237.708 6.23111 237.502 6.18322 237.442 6.1245C237.381 6.06578 237.193 6.03467 237.031 6.04578C236.869 6.05689 236.451 6.00387 236.1 5.93272C235.766 5.8613 235.45 5.84076 235.417 5.8754C235.383 5.91004 235.289 5.88596 235.211 5.81046C235.133 5.73497 234.893 5.67057 234.689 5.67384C234.143 5.68253 232.99 5.53891 232.518 5.40147C232.15 5.29649 230.955 5.19617 229.931 5.17838C229.709 5.18191 229.496 5.14269 229.461 5.10913C229.418 5.06719 229.281 5.05232 229.153 5.06288C228.966 5.08292 228.949 5.11729 229.079 5.24312C229.175 5.33539 229.371 5.37489 229.524 5.33834C229.677 5.3018 229.891 5.35807 229.995 5.45874C230.108 5.56779 230.365 5.64896 230.569 5.62865C230.765 5.617 231.133 5.65378 231.389 5.7179C232.049 5.8694 232.622 5.98817 233.546 6.16103C233.999 6.2476 234.495 6.35906 234.65 6.42481C234.796 6.49922 234.958 6.52221 235 6.47891C235.067 6.40963 235.667 6.55356 236.687 6.86984C236.944 6.95101 237.2 6.98103 237.25 6.92907C237.292 6.88577 237.583 6.9323 237.892 7.04675C238.201 7.1612 238.483 7.21639 238.516 7.18175C238.558 7.13844 238.798 7.18579 239.047 7.29266C239.296 7.39954 239.613 7.47123 239.749 7.45201C239.894 7.44118 240.065 7.48961 240.143 7.5651C240.23 7.64899 240.478 7.70472 240.708 7.69253C240.938 7.68033 241.195 7.74445 241.273 7.81995C241.359 7.90384 241.685 7.98392 241.975 7.99635C242.282 8.00851 242.573 8.07208 242.634 8.1308C242.686 8.18114 242.908 8.2458 243.122 8.26798C243.335 8.29015 243.567 8.3632 243.645 8.4387C243.714 8.50581 244.022 8.56912 244.321 8.58993C244.619 8.5937 244.936 8.68244 245.032 8.77472C245.118 8.85861 245.324 8.90649 245.468 8.87861C245.63 8.85045 245.895 8.90591 246.067 9.00549C246.248 9.11345 246.599 9.2187 246.856 9.24872C247.104 9.2874 247.378 9.3683 247.447 9.43541C247.516 9.50252 247.773 9.56664 248.004 9.5715C248.234 9.57635 248.577 9.69026 248.784 9.82339C248.991 9.95652 249.188 10.0301 249.238 9.97815C249.28 9.93485 249.528 9.97353 249.777 10.0634C250.026 10.1702 250.394 10.2582 250.599 10.289C250.796 10.3115 251.053 10.4097 251.157 10.5103C251.261 10.611 251.527 10.6835 251.757 10.6713C251.987 10.6591 252.269 10.7484 252.399 10.8742C252.521 10.9917 252.761 11.0731 252.923 11.062C253.093 11.0422 253.444 11.1475 253.702 11.2969C253.96 11.4292 254.338 11.5766 254.543 11.6075C254.74 11.647 255.1 11.7606 255.324 11.8764C255.556 11.9836 255.83 12.0645 255.949 12.0626C256.068 12.0436 256.326 12.1418 256.532 12.275C256.748 12.4165 257.117 12.5385 257.364 12.5601C257.612 12.5818 257.921 12.6962 258.059 12.8304C258.198 12.9647 258.542 13.1127 258.815 13.1595C259.089 13.2063 259.518 13.387 259.751 13.5624C260.001 13.7374 260.345 13.8684 260.506 13.8573C260.719 13.8454 260.943 13.9441 261.142 14.1371C261.315 14.3048 261.694 14.4864 262.01 14.5581C262.318 14.6214 262.696 14.803 262.861 14.9623C263.173 15.2643 264.08 15.4545 264.273 15.2553C264.331 15.1947 264.655 15.1384 264.987 15.1246C265.319 15.1107 265.642 15.0544 265.709 14.9851C265.776 14.9159 265.938 14.8707 266.066 14.8771C266.407 14.9058 266.65 14.6035 266.442 14.4022C266.32 14.2847 266.21 14.295 266.067 14.4423Z" fill="#747D86"/>
<path d="M275.092 33.296C274.694 32.9443 274.323 32.6688 274.264 32.6783C274.094 32.7151 273.208 32.2432 272.603 31.7924C272.31 31.5754 271.776 31.2598 271.415 31.1121C271.063 30.9557 270.572 30.6481 270.329 30.4132C269.948 30.0611 269.905 30.0362 269.969 30.2654C270.023 30.4522 271.064 31.527 273.448 33.868C277.269 37.6015 277.877 38.2398 277.994 38.6387C278.048 38.7913 278.692 39.5826 279.413 40.3811C280.932 42.0367 281.533 42.786 281.65 43.1678C281.695 43.3121 282.104 43.8257 282.556 44.313C283.06 44.8678 283.504 45.4661 283.716 45.872C283.901 46.2528 284.233 46.725 284.458 46.9431C284.9 47.3709 285.487 48.308 285.658 48.8766C285.73 49.1142 285.896 49.3418 286.138 49.5084C286.388 49.6835 286.606 49.9785 286.809 50.4101C286.977 50.757 287.301 51.289 287.527 51.5753C287.745 51.8703 288.026 52.3604 288.151 52.6654C288.275 52.9703 288.539 53.4266 288.747 53.6791C288.956 53.9315 289.203 54.4051 289.302 54.7361C289.41 55.0925 289.612 55.4559 289.82 55.6572C290.028 55.8586 290.195 56.1543 290.242 56.4179C290.288 56.6474 290.509 57.0787 290.727 57.3567C290.953 57.643 291.147 58.0492 291.185 58.2873C291.215 58.5341 291.365 58.8301 291.529 58.9895C291.833 59.2831 292.106 59.8501 291.997 59.9626C291.955 60.006 292.052 60.2005 292.201 60.4113C292.349 60.6051 292.526 61.0115 292.591 61.2919C292.664 61.5806 292.831 61.9276 292.961 62.0534C293.1 62.1876 293.259 62.5262 293.323 62.7895C293.379 63.0614 293.521 63.4343 293.652 63.6113C293.774 63.797 293.899 64.119 293.928 64.3317C293.957 64.5444 294.055 64.7901 294.15 64.8824C294.358 65.0837 294.592 65.7792 294.491 65.8831C294.449 65.9264 294.538 66.1467 294.695 66.3488C294.861 66.5764 294.977 66.9071 294.981 67.1287C294.976 67.342 295.065 67.6134 295.169 67.7141C295.273 67.8148 295.389 68.1113 295.41 68.3668C295.44 68.6307 295.539 68.9105 295.634 69.0028C295.729 69.095 295.828 69.3748 295.857 69.6216C295.879 69.8771 295.978 70.2081 296.083 70.3599C296.179 70.5204 296.224 70.6816 296.182 70.7249C296.149 70.7596 296.221 70.9972 296.37 71.2421C296.502 71.4873 296.584 71.7844 296.552 71.9213C296.511 72.0499 296.575 72.2791 296.68 72.4479C296.793 72.6081 296.893 72.9391 296.905 73.1862C296.917 73.4162 296.999 73.6792 297.085 73.7631C297.172 73.847 297.236 74.0933 297.231 74.3236C297.226 74.5539 297.264 74.775 297.307 74.8169C297.359 74.8672 297.432 75.1219 297.47 75.3941C297.509 75.6664 297.573 75.9126 297.607 75.9462C297.633 75.9714 297.689 76.2433 297.711 76.5499C297.733 76.8395 297.806 77.1453 297.867 77.204C297.927 77.2627 297.973 77.4581 297.968 77.6373C297.962 77.8164 297.999 78.0034 298.043 78.0624C298.095 78.1127 298.179 78.5804 298.239 79.091C298.299 79.6017 298.419 80.2052 298.5 80.4341C298.589 80.6544 298.627 80.9096 298.595 81.0124C298.554 81.1069 298.564 81.2346 298.634 81.3017C298.703 81.3688 298.749 81.5642 298.734 81.735C298.723 82.0762 298.881 82.3295 299.023 82.1823C299.074 82.1303 299.054 81.9601 298.974 81.7993C298.895 81.6386 298.892 81.4511 298.967 81.3731C299.034 81.3038 299.014 81.1336 298.927 80.9815C298.831 80.8381 298.794 80.6852 298.827 80.6506C298.903 80.5726 298.562 77.5084 298.447 77.2289C298.403 77.1358 298.318 76.617 298.249 76.0809C298.189 75.5532 298.105 75.0856 298.053 75.0353C298.009 74.9933 297.926 74.5768 297.875 74.1087C297.816 73.6321 297.715 73.1988 297.655 73.1401C297.585 73.073 297.522 72.8268 297.509 72.5797C297.496 72.3326 297.433 72.0863 297.372 72.0276C297.311 71.9689 297.23 71.6547 297.182 71.34C297.142 71.0166 297.069 70.7279 297.026 70.6859C296.974 70.6356 296.919 70.3977 296.889 70.1339C296.868 69.8784 296.795 69.6237 296.735 69.565C296.674 69.5063 296.628 69.3109 296.634 69.1488C296.64 68.9697 296.549 68.6812 296.427 68.4956C296.313 68.3183 296.214 68.0044 296.219 67.7911C296.224 67.5779 296.161 67.3316 296.065 67.2394C295.979 67.1555 295.872 66.8673 295.824 66.5866C295.777 66.306 295.661 66.0094 295.557 65.9088C295.453 65.8081 295.372 65.5451 295.377 65.3148C295.382 65.0845 295.292 64.813 295.188 64.7124C295.084 64.6117 294.968 64.3151 294.947 64.0596C294.917 63.7958 294.793 63.4908 294.637 63.3398C294.489 63.1972 294.374 62.9347 294.379 62.6874C294.375 62.4657 294.25 62.1267 294.11 61.9242C293.962 61.7134 293.82 61.3917 293.791 61.179C293.771 60.9747 293.62 60.6104 293.462 60.3742C293.305 60.1379 293.163 59.8162 293.152 59.6543C293.141 59.4925 293.009 59.2473 292.861 59.1047C292.705 58.9537 292.573 58.6574 292.542 58.3765C292.52 58.0528 292.37 57.7397 292.092 57.4031C291.865 57.1339 291.672 56.7618 291.652 56.5916C291.64 56.4127 291.437 55.9981 291.21 55.6607C290.983 55.3232 290.781 54.9427 290.77 54.815C290.751 54.6959 290.557 54.3238 290.321 53.995C290.103 53.666 289.865 53.2008 289.801 52.9545C289.737 52.6912 289.536 52.3619 289.31 52.1438C289.085 51.9257 288.839 51.5033 288.705 51.1388C288.589 50.791 288.334 50.3602 288.153 50.184C287.971 50.0079 287.673 49.5351 287.487 49.1373C287.302 48.7395 286.934 48.1656 286.673 47.8628C286.412 47.56 286.124 47.1126 286.043 46.8666C285.962 46.6207 285.612 46.0976 285.256 45.6854C284.9 45.2904 284.376 44.5313 284.077 44.0074C283.726 43.382 283.421 42.9691 283.188 42.8108C282.998 42.6774 282.624 42.2314 282.344 41.8095C282.073 41.3961 281.776 40.9574 281.688 40.8224C281.592 40.696 281.469 40.4763 281.399 40.341C281.329 40.2056 280.903 39.7264 280.452 39.2902C280.01 38.8453 279.358 38.1139 279.01 37.659C278.661 37.2041 278.157 36.5982 277.888 36.3041C277.61 36.0186 277.322 35.6224 277.242 35.4446C277.092 35.1315 276.693 34.7286 275.092 33.296Z" fill="#747D86"/>
<path d="M248.216 22.4777C248.165 22.4785 247.699 22.1107 247.188 21.6669C246.6 21.1647 245.996 20.731 245.549 20.5164C245.145 20.3267 244.611 20.0112 244.344 19.8023C244.085 19.6018 243.569 19.3371 243.208 19.2065C242.865 19.0755 242.47 18.8772 242.34 18.7513C242.218 18.6339 241.84 18.4523 241.497 18.3555C241.155 18.2586 240.794 18.0938 240.681 17.9848C240.577 17.8841 240.242 17.7445 239.934 17.6812C239.626 17.6179 239.292 17.4783 239.179 17.3692C239.066 17.2602 238.757 17.1457 238.475 17.1076C238.193 17.0694 237.885 16.955 237.789 16.8627C237.685 16.7621 237.394 16.6644 237.138 16.6514C236.899 16.6382 236.565 16.5497 236.41 16.4498C236.254 16.35 235.981 16.2861 235.802 16.2975C235.64 16.3086 235.417 16.244 235.322 16.1517C235.235 16.0678 234.952 15.9785 234.688 15.9572C234.432 15.9442 234.175 15.8801 234.105 15.813C234.045 15.7542 233.891 15.7226 233.746 15.7334C233.618 15.744 233.276 15.6983 232.985 15.6176C232.703 15.5454 232.291 15.4326 232.06 15.3766C231.846 15.3203 231.547 15.2654 231.393 15.2678C230.694 15.2619 229.763 15.1318 229.65 15.0228C229.581 14.9557 229.495 14.94 229.445 14.9919C229.403 15.0352 229.121 15.0312 228.839 14.976C228.394 14.8808 226.799 14.8295 224.556 14.8396C224.326 14.8348 223.304 14.8852 222.29 14.9269C221.267 14.9773 220.236 15.0194 219.989 15.0148C219.724 15.0105 219.478 15.057 219.419 15.1176C219.369 15.1696 219.25 15.1886 219.164 15.1558C219.078 15.1231 218.618 15.1475 218.142 15.2233C217.657 15.2907 217.129 15.3503 216.968 15.3614C216.797 15.3641 216.627 15.4009 216.594 15.4355C216.56 15.4702 216.16 15.5192 215.708 15.5349C215.24 15.5509 214.525 15.6476 214.109 15.748C213.693 15.8484 213.174 15.9505 212.953 15.954C212.731 15.9576 212.502 16.0209 212.443 16.0815C212.384 16.1421 212.231 16.1446 212.111 16.0783C211.982 16.0207 211.7 16.0337 211.489 16.1138C210.861 16.3455 210.505 16.4364 210.07 16.4519C209.849 16.4554 209.551 16.5028 209.407 16.5477C209.262 16.5927 208.753 16.7031 208.277 16.796C207.792 16.8804 207.359 16.9982 207.309 17.0501C207.267 17.0934 207.113 17.0959 206.977 17.064C206.839 17.015 206.61 17.0442 206.474 17.1146C206.153 17.2903 205.006 17.5217 204.673 17.4844C204.527 17.4611 204.349 17.5066 204.274 17.5846C204.207 17.6538 203.944 17.7348 203.68 17.7646C203.424 17.7857 203.17 17.858 203.111 17.9186C203.052 17.9792 202.823 18.0255 202.592 18.0206C202.362 18.0158 202.124 18.0707 202.057 18.14C201.99 18.2093 201.693 18.2908 201.386 18.3127C201.097 18.3344 200.791 18.4075 200.724 18.4768C200.657 18.546 200.555 18.5647 200.512 18.5228C200.46 18.4724 200.171 18.5282 199.857 18.6441C199.544 18.7599 199.263 18.8241 199.229 18.7905C199.177 18.7402 198.768 18.8149 197.919 19.0331C197.792 19.0607 197.46 19.1257 197.205 19.1638C195.878 19.3555 195.444 19.4221 195.18 19.4349C195.027 19.4544 194.866 19.4996 194.824 19.5429C194.749 19.6208 193.737 19.7819 193.098 19.8177C192.706 19.841 191.381 20.152 191.297 20.2386C191.263 20.2732 191.093 20.293 190.922 20.2787C190.735 20.2646 190.216 20.3496 189.766 20.4676C188.212 20.8761 187.193 21.097 186.597 21.1577C186.273 21.1799 185.942 21.2619 185.875 21.3312C185.799 21.4091 185.638 21.4543 185.51 21.4478C185.245 21.4265 185.001 21.6265 185.131 21.7523C185.183 21.8026 185.252 21.8016 185.293 21.7583C185.428 21.6197 187.576 21.6025 187.706 21.7283C187.931 21.9464 187.826 22.2977 187.489 22.5248C187.32 22.6298 187.151 22.7007 187.107 22.6588C187.073 22.6252 186.869 22.6796 186.657 22.7597C186.2 22.9717 185.085 23.0832 184.776 22.9517C184.656 22.9025 184.528 22.896 184.486 22.9393C184.41 23.0172 183.458 23.1859 182.972 23.2022C182.828 23.213 182.666 23.2582 182.608 23.3188C182.557 23.3708 182.302 23.426 182.047 23.4301C181.578 23.4291 181.136 23.5384 180.365 23.8321C180.128 23.9211 179.805 23.9774 179.651 23.9458C179.488 23.9228 179.276 23.9859 179.167 24.0984C179.067 24.2024 178.795 24.292 178.565 24.2871C178.335 24.2823 178.08 24.3545 177.988 24.4498C177.895 24.5451 177.607 24.652 177.352 24.6902C177.097 24.7283 176.75 24.8618 176.564 24.9841C176.387 25.0978 176.098 25.1876 175.936 25.1817C175.774 25.1758 175.486 25.2656 175.3 25.388C175.132 25.51 174.827 25.6342 174.623 25.6716C174.427 25.7174 174.114 25.8502 173.937 25.981C173.743 26.112 173.421 26.2535 173.217 26.2909C172.996 26.3285 172.675 26.4701 172.498 26.6008C172.304 26.7318 171.982 26.8733 171.778 26.9107C171.557 26.9483 171.193 27.1332 170.949 27.3161C170.713 27.4904 170.333 27.6926 170.104 27.756C169.883 27.8106 169.477 28.0218 169.216 28.222C168.955 28.4223 168.575 28.6245 168.371 28.6618C168.167 28.6992 167.71 28.9452 167.365 29.198C167.019 29.4508 166.597 29.6963 166.41 29.7334C166.232 29.7788 165.877 29.9721 165.633 30.1721C165.01 30.6936 164.293 31.1229 163.953 31.1965C163.8 31.233 163.513 31.4252 163.32 31.6244C163.119 31.8322 162.597 32.1987 162.166 32.4528C161.735 32.6899 161.102 33.1178 160.757 33.3877C159.563 34.3617 159.183 34.6321 158.988 34.6608C158.877 34.6711 158.372 35.0543 157.868 35.5057C156.91 36.3737 155.874 37.1491 155.324 37.4051C155.155 37.4931 154.659 37.9188 154.222 38.3521C153.786 38.7854 153.155 39.3156 152.818 39.5426C152.481 39.7697 152.059 40.0663 151.9 40.2138C151.731 40.353 151.47 40.5532 151.31 40.6496C151.15 40.7459 150.26 41.5957 149.329 42.54C147.609 44.2813 147.096 44.6561 146.844 44.4129C146.758 44.329 146.814 44.1149 146.979 43.8224C147.12 43.5728 147.426 42.9796 147.648 42.5071C147.871 42.0346 148.194 41.4411 148.369 41.191C148.544 40.941 148.717 40.6227 148.758 40.4771C148.798 40.3315 149.005 39.9445 149.212 39.6086C149.42 39.2898 149.551 38.9808 149.508 38.9388C149.465 38.8969 149.38 38.9153 149.321 38.9589C149.262 39.0195 148.751 39.5307 148.18 40.0855C147.618 40.6487 146.711 41.4988 146.165 41.9936C144.325 43.6345 138.659 49.5912 138.47 50.0632C138.438 50.166 137.71 51.0047 136.856 51.9392C134.829 54.1714 134.837 54.1628 134.865 54.3243C134.884 54.4093 134.743 54.6418 134.559 54.8664C134.366 55.0826 133.974 55.592 133.674 55.989C133.382 56.3944 132.88 56.9822 132.578 57.311C132.268 57.6315 131.959 58.0372 131.877 58.2261C131.689 58.681 130.345 60.4674 129.624 61.2293C129.297 61.567 128.947 62.0331 128.865 62.2561C128.767 62.4793 128.41 63.0563 128.042 63.5397C127.175 64.7131 127.15 64.7562 126.912 65.3142C126.797 65.5718 126.498 66.0712 126.24 66.4249C125.998 66.7783 125.658 67.355 125.502 67.7071C125.346 68.0592 125.056 68.5669 124.847 68.8346C124.647 69.0936 124.398 69.5409 124.309 69.8237C124.237 70.1063 124.055 70.4502 123.929 70.5801C123.803 70.71 123.622 71.0881 123.525 71.4307C123.429 71.7733 123.222 72.1774 123.071 72.3333C122.92 72.4892 122.714 72.8932 122.617 73.2358C122.512 73.6041 122.297 73.9998 122.104 74.199C121.903 74.4068 121.713 74.7765 121.633 75.1018C121.553 75.4101 121.347 75.8482 121.172 76.0983C121.006 76.3397 120.816 76.7264 120.76 76.9575C120.721 77.1884 120.565 77.5404 120.44 77.7386C120.316 77.9367 120.235 78.2278 120.263 78.3724C120.291 78.5169 120.202 78.7997 120.077 78.9978C119.944 79.2045 119.872 79.4359 119.907 79.5206C120.004 79.7322 119.652 80.096 119.438 80.0056C119.343 79.9645 119.264 79.8378 119.279 79.7182C119.3 79.4194 118.952 78.4956 118.86 78.5908C118.818 78.6341 118.762 78.8482 118.74 79.0617C118.718 79.2752 118.62 79.5326 118.519 79.6365C118.427 79.7318 118.354 79.9973 118.358 80.2189C118.379 80.4403 118.29 80.7572 118.191 80.9293C118.083 81.093 118.018 81.3328 118.029 81.4606C118.048 81.5796 117.977 81.9133 117.879 82.2048C117.539 83.2675 117.468 83.6182 117.531 83.8304C117.558 83.9408 117.502 84.1719 117.403 84.3441C117.295 84.5078 117.222 84.7562 117.233 84.901C117.252 85.0371 117.181 85.3708 117.092 85.6536C116.783 86.5794 116.695 86.9475 116.751 87.2194C116.779 87.3639 116.733 87.6716 116.66 87.886C116.448 88.5033 116.346 89.025 116.329 89.5284C116.313 90.1 116.114 90.9643 115.971 91.1116C115.904 91.1808 115.881 91.3432 115.935 91.4788C115.971 91.6146 115.968 91.9302 115.921 92.1867C115.747 93.0251 115.594 94.1019 115.394 95.9554C115.239 97.3819 115.089 98.092 114.904 98.2825C114.72 98.4731 114.546 98.2712 114.504 97.8284C114.484 97.6241 114.438 97.4287 114.395 97.3868C114.326 97.3197 114.302 96.9278 114.215 94.7464C114.197 94.1924 114.135 93.5113 114.079 93.2222C113.958 92.6358 113.796 91.0695 113.795 90.4812C113.8 90.2679 113.762 90.0639 113.71 90.0135C113.658 89.9632 113.638 89.7589 113.66 89.5454C113.696 89.1611 113.573 88.9072 113.422 89.0631C113.38 89.1064 113.374 89.2685 113.411 89.4214C113.447 89.5743 113.425 89.7538 113.366 89.8144C113.307 89.875 113.272 90.3275 113.272 90.8135C113.303 92.1688 113.188 95.0271 113.104 95.1137C113.062 95.157 113.026 95.5583 113.017 96.0189C112.973 98.5776 112.939 99.5673 112.817 100.959C112.745 101.796 112.655 102.514 112.613 102.557C112.571 102.6 112.589 102.685 112.659 102.752C112.823 102.912 112.673 103.656 112.502 103.573C112.33 103.491 112.095 103.716 112.216 103.834C112.268 103.884 112.361 103.857 112.428 103.788C112.495 103.718 112.563 103.666 112.58 103.683C112.589 103.691 112.64 105.234 112.687 107.092C112.727 108.959 112.799 110.723 112.837 111.012C113.129 113.207 113.209 113.871 113.214 114.178C113.217 114.365 113.281 114.663 113.369 114.832C113.449 115.01 113.478 115.188 113.427 115.24C113.385 115.284 113.415 115.513 113.504 115.734C113.682 116.208 113.848 116.99 113.882 117.51C113.886 117.714 113.958 117.935 114.018 117.993C114.079 118.052 114.143 118.333 114.148 118.622C114.17 118.912 114.252 119.226 114.347 119.318C114.443 119.411 114.479 119.529 114.437 119.573C114.386 119.625 114.451 119.905 114.575 120.193C114.691 120.49 114.755 120.804 114.714 120.899C114.673 120.993 114.736 121.205 114.859 121.374C114.981 121.559 115.072 121.882 115.067 122.112C115.062 122.343 115.143 122.606 115.239 122.698C115.334 122.79 115.405 122.942 115.389 123.028C115.365 123.105 115.455 123.411 115.571 123.707C115.703 124.004 115.768 124.318 115.719 124.421C115.686 124.524 115.74 124.694 115.844 124.794C115.957 124.903 116.064 125.192 116.094 125.438C116.115 125.677 116.24 126.05 116.346 126.27C116.469 126.49 116.551 126.804 116.546 126.983C116.531 127.154 116.629 127.4 116.751 127.517C116.872 127.634 116.996 127.939 117.026 128.203C117.047 128.459 117.163 128.755 117.267 128.856C117.371 128.957 117.461 129.228 117.456 129.458C117.451 129.689 117.541 129.96 117.654 130.069C117.766 130.178 117.917 130.508 117.973 130.797C118.029 131.086 118.162 131.4 118.266 131.5C118.361 131.593 118.442 131.822 118.436 132.001C118.43 132.18 118.546 132.477 118.686 132.679C118.834 132.873 119.002 133.254 119.066 133.517C119.122 133.789 119.308 134.187 119.473 134.397C119.622 134.608 119.79 134.972 119.827 135.193C119.865 135.414 119.998 135.694 120.119 135.811C120.24 135.928 120.487 136.385 120.647 136.826C120.816 137.258 121.08 137.748 121.236 137.899C121.392 138.05 121.578 138.431 121.659 138.728C121.733 139.034 121.935 139.414 122.1 139.574C122.264 139.733 122.458 140.122 122.54 140.419C122.613 140.725 122.815 141.106 122.98 141.265C123.145 141.425 123.339 141.814 123.42 142.111C123.494 142.417 123.687 142.789 123.843 142.94C123.999 143.091 124.219 143.488 124.327 143.827C124.435 144.167 124.655 144.564 124.819 144.723C125.183 145.076 125.622 145.836 125.627 146.126C125.629 146.245 125.812 146.524 126.029 146.733C126.28 146.977 126.491 147.331 126.625 147.713C126.724 148.044 127.005 148.517 127.214 148.769C127.44 149.022 127.712 149.486 127.845 149.8C127.97 150.139 128.241 150.552 128.483 150.787C128.709 151.005 129.005 151.376 129.145 151.612C129.637 152.457 130.133 153.089 131.166 154.223C131.748 154.871 132.435 155.67 132.697 156.024C134.039 157.776 134.456 158.281 135.471 159.313C136.087 159.926 136.825 160.758 137.13 161.154C137.435 161.55 138.07 162.299 138.539 162.803C139.103 163.417 139.4 163.821 139.402 163.975C139.396 164.103 139.562 164.381 139.771 164.6C139.97 164.81 140.257 165.121 140.404 165.28C140.674 165.591 141.267 165.897 141.376 165.785C141.418 165.742 141.928 166.134 142.516 166.653C143.096 167.164 143.908 167.834 144.314 168.125C144.719 168.417 145.506 169.061 146.043 169.547C146.588 170.042 147.253 170.551 147.537 170.692C148.327 171.071 149.112 171.596 149.597 172.066C149.848 172.309 150.383 172.642 150.847 172.856C151.328 173.07 151.845 173.403 152.122 173.671C152.434 173.973 152.804 174.198 153.259 174.352C153.688 174.499 154.084 174.731 154.37 175.008C154.604 175.235 154.888 175.426 155.007 175.424C155.297 175.42 156.037 175.783 156.366 176.102C156.522 176.253 156.935 176.468 157.286 176.573C157.646 176.687 158.076 176.919 158.258 177.095C158.475 177.305 158.75 177.437 159.006 177.467C159.22 177.489 159.641 177.678 159.925 177.887C160.202 178.087 160.614 178.302 160.828 178.342C161.042 178.381 161.446 178.554 161.704 178.737C161.972 178.912 162.375 179.084 162.606 179.106C162.837 179.145 163.189 179.285 163.387 179.426C163.586 179.568 163.878 179.7 164.023 179.706C164.168 179.712 164.494 179.844 164.744 180.002C165.002 180.151 165.44 180.323 165.722 180.378C166.021 180.433 166.356 180.573 166.478 180.69C166.599 180.808 166.839 180.889 167.009 180.869C167.188 180.858 167.479 180.939 167.66 181.064C167.833 181.18 168.116 181.27 168.295 181.258C168.457 181.247 168.757 181.353 168.964 181.486C169.17 181.619 169.513 181.733 169.735 181.747C169.957 181.76 170.265 181.841 170.412 181.932C170.567 182.015 170.85 182.104 171.046 182.11C171.242 182.115 171.551 182.212 171.714 182.321C171.895 182.429 172.109 182.485 172.194 182.449C172.278 182.397 172.527 182.453 172.733 182.552C172.939 182.651 173.256 182.722 173.418 182.711C173.597 182.7 173.811 182.756 173.897 182.84C173.984 182.924 174.156 182.989 174.275 182.988C174.394 182.986 174.702 183.032 174.942 183.096C175.378 183.2 175.531 183.164 175.477 182.96C175.431 182.799 174.287 182.143 173.678 181.94C173.344 181.834 173.034 181.652 172.92 181.491C172.807 181.331 172.574 181.19 172.36 181.151C171.821 181.048 171.211 180.743 170.838 180.382C170.656 180.206 170.278 179.99 169.978 179.901C169.695 179.812 169.247 179.563 168.98 179.354C168.72 179.137 168.247 178.88 167.938 178.783C167.63 178.668 167.087 178.361 166.742 178.094C166.396 177.827 165.905 177.519 165.639 177.429C165.391 177.34 164.917 177.049 164.589 176.798C164.269 176.539 163.726 176.215 163.392 176.075C163.065 175.944 162.471 175.57 162.074 175.269C161.685 174.96 161.065 174.578 160.712 174.421C160.36 174.265 159.86 173.932 159.601 173.697C159.349 173.454 158.78 173.088 158.308 172.865C157.809 172.634 157.258 172.285 156.938 171.992C156.652 171.715 156.1 171.348 155.722 171.167C155.223 170.936 154.628 170.494 153.616 169.614C152.837 168.945 151.583 167.865 150.813 167.22C149.032 165.731 148.313 165.035 146.827 163.362C146.159 162.63 144.926 161.286 144.084 160.387C143.025 159.244 142.494 158.613 142.37 158.291C142.255 158.046 141.749 157.354 141.236 156.774C140.688 156.143 140.174 155.427 139.988 155.046C139.803 154.682 139.48 154.219 139.263 154.009C139.038 153.791 138.662 153.243 138.424 152.777C138.187 152.312 137.863 151.814 137.707 151.663C137.551 151.512 137.262 151.048 137.076 150.633C136.89 150.218 136.627 149.779 136.506 149.662C136.211 149.376 135.876 148.734 135.88 148.435C135.878 148.316 135.824 148.163 135.781 148.104C135.729 148.037 135.581 147.877 135.442 147.726C135.129 147.373 134.909 146.958 134.913 146.694C134.911 146.575 134.727 146.262 134.501 145.993C134.257 145.69 134.099 145.368 134.086 145.138C134.074 144.925 133.951 144.672 133.769 144.495C133.604 144.336 133.41 143.964 133.337 143.658C133.255 143.361 133.122 143.031 133.018 142.93C132.914 142.829 132.79 142.524 132.726 142.261C132.67 141.989 132.51 141.599 132.353 141.397C132.196 141.195 132.09 140.924 132.104 140.787C132.12 140.668 131.986 140.303 131.793 139.982C131.407 139.34 131.341 138.94 131.603 138.825C131.857 138.702 132.833 139.462 133.288 140.137C133.489 140.433 133.715 140.702 133.783 140.718C133.852 140.734 133.922 140.852 133.932 140.98C133.963 141.295 134.521 142.019 135.85 143.49C136.44 144.129 137.033 144.904 137.191 145.208C137.341 145.504 137.881 146.212 138.377 146.775C138.924 147.389 139.334 147.954 139.423 148.191C139.486 148.403 139.714 148.741 139.922 148.942C140.494 149.496 141.602 151.021 141.763 151.496C141.843 151.725 142.027 151.987 142.182 152.087C142.467 152.278 143.336 153.304 143.999 154.232C144.209 154.535 144.601 155.032 144.87 155.326C145.513 156.05 150.76 161.414 151.956 162.572C154.131 164.661 158.563 168.683 159.383 169.292C159.866 169.66 160.428 170.086 160.644 170.244C160.859 170.403 161.681 171.114 162.477 171.818C163.282 172.513 164.008 173.115 164.093 173.131C164.401 173.194 166.032 174.37 166.924 175.183C167.512 175.703 168.022 176.078 168.331 176.193C168.614 176.299 169.252 176.749 169.883 177.276C170.506 177.795 171.127 178.229 171.333 178.294C171.787 178.431 172.434 178.873 173.109 179.476C173.377 179.719 174.058 180.16 174.6 180.45C175.159 180.739 175.771 181.13 175.97 181.323C176.178 181.525 176.54 181.775 176.781 181.873C177.39 182.145 178.097 182.577 178.624 183.004C179.047 183.346 179.056 183.372 178.882 183.656C178.782 183.828 178.743 184.008 178.786 184.067C179.039 184.361 179.374 184.552 179.708 184.606C179.913 184.637 180.282 184.81 180.507 184.977C180.748 185.144 181.178 185.325 181.46 185.38C181.751 185.426 182.103 185.583 182.25 185.725C182.389 185.86 182.758 186.033 183.066 186.096C183.366 186.168 183.726 186.316 183.848 186.433C183.969 186.551 184.287 186.674 184.569 186.712C184.851 186.75 185.177 186.881 185.307 187.007C185.454 187.149 185.729 187.247 185.976 187.235C186.265 187.23 186.497 187.32 186.705 187.522C186.896 187.706 187.17 187.821 187.452 187.842C187.691 187.856 188.051 187.986 188.258 188.119C188.457 188.261 188.765 188.359 188.944 188.347C189.106 188.336 189.397 188.417 189.587 188.533C189.759 188.65 190.051 188.747 190.23 188.753C190.409 188.759 190.727 188.882 190.925 189.023C191.141 189.165 191.509 189.287 191.74 189.292C191.987 189.296 192.261 189.377 192.356 189.47C192.443 189.553 192.726 189.643 192.991 189.664C193.247 189.677 193.529 189.766 193.625 189.859C193.711 189.943 193.943 190.016 194.113 190.013C194.301 190.01 194.652 190.115 194.893 190.248C195.143 190.389 195.374 190.462 195.416 190.418C195.458 190.375 195.937 190.487 196.478 190.674C197.018 190.845 197.634 190.988 197.847 190.977C198.052 190.973 198.326 191.054 198.447 191.172C198.577 191.297 198.774 191.354 198.918 191.309C199.054 191.256 199.336 191.311 199.559 191.41C199.766 191.509 200.091 191.589 200.253 191.578C200.432 191.566 200.629 191.606 200.698 191.673C200.767 191.74 201.007 191.787 201.245 191.784C201.484 191.78 201.801 191.851 201.964 191.943C202.119 192.043 202.376 192.09 202.521 192.062C202.665 192.034 202.836 192.065 202.888 192.116C202.949 192.174 203.239 192.221 203.53 192.233C203.828 192.237 204.128 192.309 204.206 192.384C204.284 192.46 204.498 192.516 204.694 192.522C205.299 192.521 206.171 192.609 206.24 192.676C206.439 192.869 208.972 192.888 209.156 192.698C209.215 192.637 209.301 192.67 209.354 192.788C209.416 192.932 209.45 192.932 209.482 192.795C209.506 192.684 209.616 192.622 209.761 192.645C209.898 192.66 210.101 192.606 210.211 192.527C210.329 192.44 210.583 192.368 210.797 192.373C210.993 192.379 211.281 192.289 211.45 192.184C211.61 192.07 211.882 191.981 212.044 191.987C212.215 192.001 212.401 191.947 212.468 191.878C212.527 191.817 212.612 191.799 212.655 191.84C212.69 191.874 213.115 191.782 213.573 191.621C214.039 191.469 214.506 191.351 214.608 191.349C214.719 191.356 214.889 191.285 214.989 191.181C215.098 191.068 215.361 190.987 215.592 190.992C215.822 190.997 216.068 190.933 216.144 190.855C216.227 190.769 216.533 190.662 216.83 190.597C217.127 190.533 217.501 190.425 217.653 190.354C217.805 190.283 217.95 190.255 217.993 190.297C218.08 190.381 218.639 190.185 218.815 190.003C219.017 189.795 218.813 189.363 218.479 189.275C218.308 189.226 218.137 189.195 218.078 189.205C217.984 189.215 216.11 188.793 215.364 188.591C214.362 188.326 213.592 188.151 213.199 188.123C212.952 188.101 212.686 188.011 212.591 187.919C212.504 187.835 212.281 187.771 212.111 187.79C211.821 187.812 211.504 187.672 211.621 187.551C211.68 187.49 212.234 187.473 214.382 187.439C215.354 187.423 216.469 187.346 216.852 187.263C217.251 187.18 217.898 187.101 218.307 187.078C218.707 187.046 219.286 186.985 219.583 186.921C220.085 186.819 220.118 186.785 220.122 186.52C220.11 186.273 220.04 186.189 219.515 185.865C219.196 185.657 218.775 185.484 218.588 185.487C218.391 185.482 218.1 185.401 217.919 185.293C217.747 185.194 217.413 185.105 217.191 185.109C216.978 185.104 216.713 185.031 216.609 184.93C216.513 184.838 216.222 184.741 215.966 184.728C215.71 184.715 215.444 184.642 215.366 184.567C215.288 184.491 215.083 184.443 214.913 184.463C214.734 184.474 214.468 184.402 214.313 184.302C214.15 184.211 213.866 184.087 213.678 184.039C213.489 183.991 213.13 183.894 212.89 183.813C212.649 183.732 212.41 183.667 212.359 183.668C212.273 183.669 212.162 183.629 211.338 183.335C211.167 183.269 210.935 183.196 210.832 183.164C210.302 183.036 210.036 182.929 209.932 182.828C209.862 182.761 209.666 182.722 209.487 182.733C209.308 182.745 208.982 182.63 208.775 182.48C208.559 182.339 208.345 182.265 208.295 182.317C208.194 182.421 207.525 182.176 207.308 181.966C207.256 181.916 207.051 181.868 206.855 181.863C206.658 181.857 206.418 181.776 206.314 181.675C206.21 181.575 205.91 181.469 205.628 181.43C205.355 181.401 204.969 181.262 204.77 181.12C204.572 180.995 204.263 180.881 204.093 180.884C203.931 180.878 203.622 180.763 203.415 180.63C203.208 180.497 202.839 180.375 202.592 180.353C202.344 180.332 202.053 180.234 201.94 180.125C201.827 180.016 201.492 179.876 201.202 179.83C200.911 179.783 200.611 179.677 200.533 179.602C200.455 179.526 200.138 179.42 199.838 179.348C199.53 179.285 199.213 179.162 199.126 179.078C199.031 178.986 198.627 178.831 198.233 178.717C197.831 178.613 197.436 178.449 197.332 178.348C197.236 178.256 196.988 178.166 196.783 178.135C196.578 178.121 196.208 177.965 195.958 177.79C195.725 177.615 195.356 177.459 195.168 177.445C194.749 177.392 194.259 177.135 194.213 176.923C194.149 176.659 194.584 176.695 194.999 176.995C195.214 177.137 195.446 177.227 195.539 177.183C195.624 177.147 195.923 177.185 196.223 177.274C197.123 177.558 197.713 177.711 198.364 177.837C198.714 177.908 199.142 178.004 199.322 178.061C199.502 178.117 199.793 178.164 199.981 178.161C200.16 178.167 200.476 178.238 200.691 178.312C200.897 178.394 201.17 178.44 201.307 178.438C201.443 178.419 201.597 178.451 201.658 178.509C201.727 178.576 201.813 178.609 201.872 178.583C202.05 178.503 203.776 178.714 203.888 178.823C203.949 178.882 204.086 178.914 204.179 178.887C204.264 178.869 204.588 178.88 204.87 178.919C205.161 178.948 206.031 178.985 206.807 178.999C207.592 179.003 208.266 179.035 208.309 179.077C208.387 179.152 211.422 179.087 211.506 179C211.531 178.974 212.152 178.922 212.877 178.885C213.601 178.848 214.29 178.777 214.392 178.724C214.502 178.663 214.621 178.644 214.664 178.686C214.699 178.719 214.988 178.681 215.31 178.59C215.625 178.508 216.135 178.432 216.441 178.41C217.097 178.374 217.479 178.223 217.652 177.905C217.818 177.612 217.489 177.276 217.011 177.267C216.815 177.262 216.592 177.197 216.505 177.113C216.427 177.038 216.256 176.989 216.128 177C215.992 177.019 215.684 176.956 215.435 176.866C215.187 176.793 214.853 176.722 214.683 176.724C214.512 176.727 214.324 176.679 214.255 176.612C214.194 176.553 214.023 176.505 213.878 176.532C213.733 176.543 213.391 176.481 213.117 176.383C212.534 176.187 211.84 176.002 211.721 176.004C211.669 176.005 211.37 175.933 211.044 175.836C210.719 175.739 210.308 175.66 210.12 175.646C209.933 175.649 209.727 175.584 209.649 175.508C209.58 175.441 209.357 175.36 209.152 175.346C208.631 175.294 207.414 174.939 206.915 174.691C206.675 174.575 206.452 174.511 206.418 174.545C206.335 174.632 205.76 174.428 205.587 174.26C205.509 174.185 205.243 174.095 205.004 174.065C204.764 174.017 204.352 173.853 204.093 173.687C203.843 173.512 203.577 173.388 203.509 173.406C203.432 173.416 203.003 173.235 202.547 172.995C202.091 172.755 201.67 172.566 201.611 172.575C201.551 172.585 201.233 172.428 200.889 172.212C200.553 172.004 200.045 171.748 199.754 171.65C199.479 171.552 199.109 171.345 198.953 171.194C198.797 171.043 198.436 170.827 198.144 170.729C197.861 170.623 197.31 170.325 196.914 170.058C196.526 169.8 195.975 169.502 195.709 169.395C195.435 169.297 194.952 168.998 194.632 168.739C194.313 168.48 193.864 168.197 193.625 168.132C193.393 168.059 192.799 167.702 192.299 167.352C191.807 166.993 191.187 166.628 190.938 166.521C190.68 166.423 190.275 166.148 190.024 165.922C189.365 165.284 187.5 163.864 187.269 163.825C186.995 163.762 186.433 163.25 183.539 160.466C180.905 157.915 179.69 156.639 179.374 156.098C179.277 155.921 178.746 155.255 178.199 154.625C177.651 153.994 177.04 153.168 176.838 152.788C176.627 152.416 176.339 151.985 176.2 151.851C175.819 151.482 175.224 150.554 175.142 150.222C175.113 150.061 174.86 149.664 174.581 149.328C174.303 149.008 174.023 148.552 173.951 148.331C173.887 148.102 173.694 147.73 173.51 147.486C173.336 147.25 173.089 146.776 172.947 146.437C172.822 146.098 172.55 145.617 172.35 145.373C172.167 145.128 172.008 144.824 172.024 144.704C172.03 144.576 171.923 144.322 171.775 144.111C171.627 143.917 171.458 143.519 171.394 143.239C171.321 142.95 171.214 142.662 171.145 142.595C171.067 142.519 170.934 142.206 170.834 141.875C170.735 141.544 170.611 141.239 170.559 141.189C170.437 141.071 169.768 139.249 169.8 139.112C169.807 139.052 169.681 138.628 169.519 138.153C169.341 137.678 169.178 137.101 169.157 136.863C169.127 136.616 169.029 136.302 168.932 136.141C168.836 135.998 168.746 135.727 168.743 135.556C168.732 135.377 168.621 134.867 168.503 134.4C168.393 133.942 168.292 133.525 168.3 133.466C168.299 133.414 168.241 133.006 168.174 132.555C168.107 132.104 168.039 131.602 168.028 131.458C168.017 131.296 167.98 131.143 167.954 131.118C167.876 131.042 167.721 128.896 167.668 127.234C167.626 125.717 167.563 124.985 167.368 123.504C167.291 122.96 167.201 122.168 167.168 121.751C167.127 121.325 167.051 120.832 166.988 120.637C166.917 120.45 166.86 120.11 166.839 119.889C166.819 119.667 166.733 119.131 166.641 118.707C166.429 117.746 166.372 117.406 166.308 116.64C166.269 116.316 166.204 116.002 166.152 115.952C166.1 115.901 166.037 115.689 166.033 115.485C165.989 114.871 165.835 113.799 165.774 113.741C165.74 113.707 165.752 113.417 165.798 113.092C165.835 112.759 165.821 112.444 165.761 112.385C165.691 112.318 165.639 111.731 165.637 111.074C165.641 109.803 165.501 109.567 164.995 109.916C164.843 110.021 164.556 110.196 164.37 110.301C164.176 110.398 163.898 110.616 163.739 110.78C163.42 111.109 163.114 111.165 162.898 110.956C162.837 110.88 162.807 110.13 162.853 109.268C162.89 108.415 162.924 107.374 162.926 106.973C162.927 106.555 162.979 106.052 163.027 105.863C163.092 105.675 163.079 105.41 163.017 105.283C162.947 105.165 162.928 105.029 162.961 104.994C163.003 104.951 163.033 104.712 163.046 104.439C163.08 102.392 163.179 101.128 163.305 100.998C163.355 100.946 163.36 100.75 163.314 100.555C163.269 100.36 163.282 100.155 163.349 100.085C163.408 100.025 163.439 99.8196 163.436 99.6321C163.416 99.4448 163.47 99.1114 163.535 98.9057C163.616 98.6998 163.703 98.2635 163.74 97.9304C163.846 97.0931 163.985 96.2553 164.074 95.9213C164.178 95.5189 164.173 93.6857 164.072 93.2183C163.989 92.853 163.972 92.8362 163.664 92.8241C163.272 92.8133 163.104 92.9694 162.883 93.5442C162.482 94.5483 161.156 95.2942 160.323 94.9749C160.1 94.8762 159.835 94.8207 159.741 94.8478C159.648 94.8748 159.392 94.8448 159.186 94.7799C158.818 94.6749 158.818 94.6749 157.912 95.5761C157.073 96.4251 156.988 96.4776 156.512 96.5364C156.222 96.5581 155.942 96.6393 155.875 96.7085C155.699 96.8904 155.074 96.7213 154.899 96.4342C154.688 96.0965 154.653 94.4855 154.85 93.4847C155.171 91.7657 155.267 90.8348 155.12 90.7263C154.879 90.5596 154.459 90.9926 154.391 91.4968C154.345 91.8045 154.262 91.9422 154.143 91.9441C153.938 91.9474 153.848 91.693 153.999 91.5371C154.058 91.4765 154.028 91.2297 153.939 90.9924C153.823 90.6787 153.829 90.4996 153.971 90.3523C154.08 90.2398 154.195 89.931 154.233 89.649C154.271 89.367 154.343 89.1015 154.393 89.0496C154.452 88.9889 154.483 88.8008 154.471 88.6049C154.449 88.2813 154.544 87.8363 154.844 86.9362C154.926 86.7132 154.956 86.4399 154.92 86.3382C154.892 86.2278 154.929 85.8435 154.999 85.4757C155.244 84.3036 154.742 83.8512 154.203 84.7551C154.045 85.0219 153.872 85.3402 153.823 85.4774C153.774 85.6146 153.558 85.9421 153.34 86.2184C153.123 86.4947 152.916 86.8647 152.885 87.0527C152.845 87.2324 152.598 87.7309 152.332 88.1274C152.066 88.5409 151.843 88.9964 151.837 89.1415C151.831 89.2865 151.682 89.5958 151.516 89.8372C151.349 90.0616 151.218 90.4048 151.221 90.5923C151.225 90.831 151.118 91.0459 150.841 91.3317C150.548 91.6348 150.44 91.8496 150.421 92.1996C150.38 92.8653 149.792 93.4033 149.463 93.0846C149.281 92.9084 149.352 92.5747 149.636 92.195C149.744 92.0483 149.8 91.7831 149.771 91.6216C149.734 91.4175 149.823 91.1518 150.032 90.85C150.223 90.5826 150.362 90.2308 150.367 89.9835C150.38 89.7274 150.478 89.453 150.628 89.2971C150.779 89.1413 150.894 88.8666 150.899 88.6533C150.896 88.4317 151.051 88.0625 151.26 87.7608C151.459 87.4677 151.624 87.0899 151.629 86.8937C151.626 86.6891 151.79 86.3284 152.016 86.0263C152.224 85.7416 152.406 85.3977 152.404 85.2613C152.391 84.9801 152.688 84.3955 152.998 84.0751C153.124 83.9452 153.239 83.6876 153.253 83.4827C153.275 83.2862 153.506 82.8221 153.764 82.4513C154.014 82.0892 154.263 81.6419 154.302 81.4622C154.334 81.2911 154.582 80.8608 154.849 80.5155C155.117 80.1702 155.407 79.6625 155.487 79.3883C155.576 79.0714 155.9 78.5632 156.293 78.0709C156.652 77.6303 157.026 77.053 157.116 76.8043C157.206 76.5556 157.689 75.8658 158.182 75.2525C158.666 74.6479 159.075 74.1042 159.091 74.0358C159.171 73.7105 160.633 71.8539 161.639 70.8147C162.259 70.1738 163.247 69.0837 163.833 68.4092C164.536 67.5965 164.997 67.1202 165.192 67.0403C165.361 66.9694 166.184 66.206 167.132 65.2273C168.18 64.1618 168.978 63.4073 169.349 63.1797C169.973 62.7775 170.344 62.4987 171.05 61.8906C171.866 61.1869 172.961 60.385 173.131 60.3652C173.233 60.3466 173.638 60.0673 174.042 59.7368C174.757 59.1541 175.407 58.743 175.721 58.6953C175.806 58.6769 176.144 58.4498 176.48 58.1716C176.808 57.9021 177.222 57.6482 177.383 57.603C177.545 57.5748 177.942 57.3553 178.262 57.1285C178.591 56.8931 179.056 56.6384 179.31 56.5491C179.556 56.4684 179.953 56.2489 180.197 56.066C180.442 55.883 180.822 55.6808 181.051 55.6345C181.281 55.5712 181.661 55.369 181.897 55.1947C182.141 55.0118 182.564 54.8174 182.836 54.7619C183.099 54.698 183.438 54.5392 183.564 54.4093C183.698 54.2707 184.002 54.1294 184.24 54.0745C184.478 54.0366 184.868 53.8769 185.104 53.7196C185.34 53.5624 185.654 53.4295 185.807 53.41C185.96 53.4075 186.282 53.266 186.518 53.1087C186.754 52.9515 187.127 52.8091 187.331 52.7718C187.535 52.7514 187.781 52.6537 187.865 52.5671C187.94 52.4892 188.212 52.3996 188.45 52.3617C188.688 52.3408 189.044 52.2158 189.238 52.0848C189.424 51.9454 189.704 51.8642 189.849 51.8875C190.003 51.9021 190.283 51.8209 190.46 51.6901C190.637 51.5594 190.933 51.4438 191.112 51.4325C191.283 51.4297 191.63 51.2963 191.892 51.1472C192.154 50.9981 192.434 50.9168 192.528 50.958C192.614 50.9907 192.835 50.919 193.011 50.7883C193.197 50.6659 193.519 50.5585 193.75 50.5633C193.98 50.5682 194.243 50.4872 194.343 50.3833C194.444 50.2794 194.707 50.1985 194.937 50.2033C195.168 50.2082 195.389 50.1705 195.431 50.1272C195.473 50.0839 195.71 50.029 195.974 49.9992C196.23 49.9781 196.484 49.9058 196.543 49.8452C196.593 49.7932 197.078 49.7258 197.606 49.7003C198.126 49.6835 198.586 49.6421 198.603 49.6248C198.628 49.5988 199.266 49.5119 200.015 49.4488C201.394 49.3074 202.136 49.3041 203.341 49.4299C203.708 49.4666 204.271 49.5088 204.587 49.5123C205.679 49.529 205.858 49.5347 205.918 49.5934C205.944 49.6186 206.355 49.6802 206.833 49.7238C207.302 49.7589 207.721 49.829 207.765 49.871C207.817 49.9213 208.073 49.9343 208.337 49.9215C208.814 49.8798 209.132 50.0197 208.955 50.2016C208.914 50.2449 208.94 50.3041 209.026 50.3198C209.137 50.3436 209.17 50.309 209.134 50.1902C209.107 50.0798 209.234 50.0522 209.533 50.09C209.773 50.1374 210.004 50.1934 210.039 50.2269C210.073 50.2605 210.296 50.2911 210.526 50.2959C210.765 50.3092 211.295 50.403 211.707 50.5329C212.126 50.6541 212.683 50.7731 212.939 50.7861C213.212 50.7988 213.495 50.8881 213.581 50.972C213.668 51.0559 213.813 51.0791 213.915 51.0434C214.016 50.9906 214.333 51.0453 214.633 51.1684C214.933 51.2744 215.242 51.3548 215.318 51.328C215.403 51.3096 215.54 51.3586 215.627 51.4424C215.714 51.5263 215.979 51.5989 216.226 51.6034C216.474 51.608 216.765 51.7057 216.878 51.8147C216.991 51.9238 217.171 51.9977 217.273 51.9619C217.366 51.9349 217.537 51.9492 217.631 51.9903C217.726 52.0315 217.414 51.7295 216.946 51.3106C216.177 50.6492 215.608 50.3002 214.922 50.0894C214.82 50.0569 214.475 49.8237 214.189 49.5639C213.774 49.2124 213.559 49.105 213.26 49.1012C212.996 49.1139 212.773 49.0152 212.539 48.7887C212.322 48.579 212.047 48.4469 211.791 48.4169C211.56 48.395 211.149 48.2481 210.865 48.1077C210.581 47.9672 210.255 47.853 210.128 47.8806C209.873 47.9188 208.95 47.3111 209.171 47.2564C209.307 47.2201 209.059 46.6613 208.914 46.6721C208.727 46.6751 208.691 47.0765 208.855 47.2359C209.02 47.3952 209.012 47.4209 208.782 47.4161C208.449 47.4299 207.742 46.9466 207.876 46.8081C207.927 46.7561 208.038 46.7799 208.133 46.8722C208.22 46.9561 208.391 46.9704 208.509 46.9003C208.627 46.8302 208.685 46.7355 208.642 46.6935C208.598 46.6516 208.53 46.6527 208.48 46.7046C208.438 46.7479 208.335 46.7325 208.266 46.6654C208.058 46.4641 208.261 46.3585 208.748 46.4275C208.996 46.4662 209.235 46.4453 209.293 46.3847C209.419 46.2548 209.72 46.3779 209.86 46.6315C209.931 46.7838 209.948 46.7836 209.92 46.622C209.892 46.4775 210.061 46.4236 210.675 46.3968C211.118 46.3897 211.477 46.4352 211.504 46.5285C211.523 46.6135 211.652 46.6882 211.78 46.6947C211.95 46.709 212.001 46.6741 211.965 46.5553C211.946 46.4533 212.721 46.3812 214.077 46.3682C215.261 46.3407 216.25 46.3079 216.283 46.2733C216.309 46.2473 216.888 46.204 217.553 46.1934C218.217 46.1657 218.933 46.1202 219.137 46.0658C219.332 46.02 220.038 45.9491 220.711 45.9128C221.376 45.8681 221.954 45.7907 221.996 45.7474C222.047 45.6954 222.243 45.6837 222.431 45.7149C222.747 45.7865 222.977 45.7403 223.825 45.4539C224.003 45.3914 224.301 45.361 224.489 45.3751C224.685 45.3975 224.881 45.3688 224.931 45.3169C224.973 45.2736 225.219 45.21 225.483 45.1802C225.985 45.1295 226.465 44.7382 226.35 44.4927C226.253 44.2982 225.362 43.5364 225.165 43.4969C224.908 43.4328 223.823 42.7509 223.494 42.4492C223.321 42.2814 223.011 42.1329 222.806 42.102C222.601 42.0883 222.249 41.9489 222.025 41.799C221.809 41.6575 221.466 41.5095 221.269 41.487C221.065 41.4732 220.824 41.3748 220.72 41.2741C220.616 41.1734 220.307 41.059 220.025 41.0038C219.752 40.957 219.314 40.802 219.064 40.661C218.806 40.5287 218.515 40.448 218.405 40.4754C218.286 40.5114 218.02 40.4048 217.796 40.2378C217.554 40.0541 217.237 39.9483 217.006 39.9605C216.794 39.9724 216.528 39.8999 216.415 39.7908C216.311 39.6902 216.053 39.5579 215.856 39.5013C215.651 39.4364 215.41 39.3208 215.332 39.2453C215.159 39.0776 215.188 38.7872 215.384 38.8096C215.453 38.8256 215.683 38.7964 215.895 38.7503C216.32 38.6413 219.005 38.624 219.365 38.7206C219.485 38.7528 219.775 38.7823 220.006 38.7871C220.236 38.792 220.45 38.8312 220.484 38.8648C220.528 38.9067 220.767 38.9541 221.032 38.9754C221.288 38.9884 221.562 39.0693 221.649 39.1532C221.735 39.2371 221.95 39.2933 222.111 39.2822C222.29 39.2709 222.625 39.3934 222.841 39.552C223.073 39.7103 223.512 39.9335 223.829 40.0393C224.241 40.1862 224.681 40.4777 225.545 41.2142C226.185 41.7497 226.816 42.2257 226.953 42.2747C227.262 42.3891 227.736 42.7312 228.834 43.626C229.352 44.0441 229.912 44.3848 230.264 44.5241C230.581 44.6299 230.994 44.828 231.175 44.953C231.356 45.078 231.639 45.1673 231.801 45.1562C231.963 45.128 232.227 45.1494 232.39 45.2065C232.553 45.2465 232.732 45.2352 232.79 45.1745C232.849 45.1139 233.044 45.0682 233.224 45.0739C233.386 45.0798 233.708 44.9894 233.911 44.8838C234.131 44.778 234.411 44.7138 234.549 44.7628C234.686 44.7947 234.881 44.749 234.982 44.6451C235.082 44.5411 235.379 44.4256 235.651 44.3871C235.923 44.3487 236.178 44.2764 236.228 44.2244C236.278 44.1725 236.55 44.0829 236.839 44.0271C237.128 43.9713 237.408 43.8731 237.466 43.8125C237.517 43.7605 237.712 43.7147 237.908 43.7202C238.087 43.7258 238.41 43.6695 238.614 43.581C239.503 43.2172 245.94 43.2084 246.313 43.5691C246.356 43.6111 246.647 43.6576 246.946 43.6784C247.244 43.6822 247.561 43.7709 247.648 43.8548C247.735 43.9387 247.949 43.995 248.128 43.9836C248.289 43.9725 248.623 44.061 248.855 44.1681C249.079 44.2839 249.405 44.3811 249.584 44.3867C249.763 44.3924 250.072 44.5068 250.27 44.6316C250.468 44.7563 250.803 44.8789 250.999 44.9013C251.204 44.9151 251.488 45.0556 251.652 45.2149C252.198 45.7434 252.539 45.7209 252.496 45.1589C252.455 44.7673 251.526 43.7504 248.285 40.613C245.469 37.8696 244.3 36.8224 243.568 36.3822C243.327 36.2496 242.636 35.7149 242.014 35.2132C241.349 34.6696 240.728 34.2531 240.488 34.1887C240.282 34.1238 239.869 33.9087 239.585 33.7001C239.291 33.5001 238.862 33.3023 238.631 33.2633C238.392 33.2331 238.1 33.1013 237.961 32.967C237.831 32.8412 237.47 32.6764 237.153 32.6047C236.64 32.4765 236.356 32.3361 235.383 31.7632C234.824 31.4396 235.362 30.9706 236.115 31.1462C236.389 31.21 236.662 31.2398 236.704 31.2135C236.755 31.1957 236.849 31.2197 236.91 31.2785C236.971 31.3372 237.287 31.4089 237.603 31.4465C237.928 31.4754 238.279 31.5977 238.392 31.7068C238.505 31.8158 238.918 32.0309 239.321 32.1865C239.724 32.3421 240.137 32.5572 240.25 32.6662C240.354 32.7669 240.716 32.9999 241.043 33.1822C241.378 33.356 242.007 33.7297 242.429 34.0043C242.851 34.279 243.41 34.5685 243.676 34.641C243.942 34.7135 244.251 34.862 244.355 34.9627C244.52 35.1221 245.825 35.161 245.984 35.0135C246.194 34.814 244.04 32.9298 243.363 32.7275C243.157 32.6625 242.718 32.4052 242.373 32.1378C242.044 31.8702 241.45 31.5301 241.073 31.3826C240.686 31.2268 240.3 31.0368 240.204 30.9445C240.109 30.8523 239.791 30.7294 239.501 30.6829C239.21 30.6364 238.927 30.5471 238.875 30.4968C238.823 30.4464 238.489 30.3239 238.137 30.2016C237.786 30.0963 237.442 29.9483 237.373 29.8812C237.312 29.8225 237.055 29.7584 236.791 29.737C236.535 29.724 236.269 29.6515 236.191 29.576C236.122 29.5089 235.856 29.4364 235.592 29.4151C235.336 29.4021 235.053 29.3128 234.975 29.2373C234.888 29.1534 234.563 29.0563 234.238 29.0273C233.922 28.9897 233.597 28.9097 233.527 28.8426C233.449 28.7671 233.158 28.6694 232.884 28.6226C231.823 28.4178 230.256 28.0079 229.878 27.8263C229.663 27.7189 229.398 27.6464 229.27 27.657C229.159 27.6673 228.825 27.5447 228.54 27.3702C228.256 27.1956 227.922 27.0731 227.794 27.0836C227.683 27.0939 227.426 26.9957 227.21 26.8542C227.003 26.7211 226.53 26.4813 226.153 26.3339C225.389 26.0305 224.292 25.1527 224.286 24.8288C224.282 24.556 224.739 24.3782 225.888 24.2149C226.415 24.1383 226.891 24.0454 226.925 24.0108C226.992 23.9415 228.53 23.6697 228.727 23.6922C228.778 23.6913 228.948 23.6716 229.101 23.635C229.916 23.4345 230.248 23.3695 230.631 23.3378C230.861 23.3256 231.832 23.2419 232.777 23.1672C234.736 22.9995 235.358 22.9811 236.007 23.0389C236.263 23.069 236.911 23.0927 237.466 23.1095C238.762 23.14 239.155 23.1849 240.344 23.4132C240.9 23.5152 241.388 23.5841 241.438 23.5492C241.489 23.5314 241.583 23.5554 241.644 23.6142C241.705 23.6729 242.021 23.7446 242.337 23.7822C242.662 23.8111 242.996 23.9166 243.091 24.0089C243.187 24.1012 243.444 24.1653 243.674 24.1531C243.921 24.1406 244.178 24.2218 244.334 24.3728C244.464 24.4986 244.799 24.6382 245.081 24.6764C245.363 24.7145 245.698 24.8542 245.862 25.0135C246.009 25.1561 246.31 25.2963 246.524 25.3185C246.797 25.3482 247.176 25.5468 247.676 25.9311C248.091 26.2485 248.668 26.6059 248.96 26.7377C249.252 26.8695 249.977 27.3866 250.574 27.8972C251.179 28.3992 251.74 28.8251 251.851 28.8318C251.954 28.8473 252.194 28.9628 252.384 29.0962C252.738 29.3549 253.668 29.8858 253.779 29.8925C253.813 29.892 253.87 29.7461 253.901 29.5581C253.948 29.3015 253.868 29.0896 253.615 28.744C253.415 28.5 253.185 28.0261 253.086 27.7122C252.977 27.3217 252.802 27.0175 252.516 26.7407C252.291 26.5226 251.25 25.4819 250.201 24.4157C249.152 23.3495 248.268 22.4768 248.216 22.4777Z" fill="#C7CCD9"/>
<path d="M206.497 11.785C205.858 11.8208 204.964 11.8777 204.53 11.9102C204.096 11.9597 203.414 12.0047 203.014 12.0367C202.614 12.0686 201.89 12.1399 201.413 12.1816C200.554 12.272 199.285 12.369 198.509 12.3899C198.279 12.4021 197.59 12.4898 196.977 12.5848C196.374 12.6882 195.489 12.7876 195.011 12.8123C194.551 12.8367 193.735 12.952 193.208 13.0627C192.689 13.1648 192.052 13.2687 191.796 13.2728C191.532 13.2685 191.285 13.3151 191.243 13.3584C191.201 13.4017 190.98 13.4393 190.75 13.4344C190.519 13.4296 190.298 13.4672 190.256 13.5105C190.189 13.5798 189.883 13.6358 188.666 13.7661C188.3 13.7975 187.221 14.0279 186.134 14.284C185.879 14.3392 185.64 14.36 185.597 14.3181C185.562 14.2845 185.29 14.34 184.994 14.4386C184.07 14.7688 183.535 14.9223 183.33 14.8914C183.227 14.876 182.956 14.9485 182.752 15.0371C182.541 15.1342 182.32 15.1719 182.276 15.1299C182.233 15.088 182.021 15.134 181.792 15.2314C181.563 15.3289 181.317 15.3925 181.232 15.3768C181.146 15.3611 180.892 15.4334 180.663 15.5308C180.417 15.6285 180.094 15.7019 179.94 15.6702C179.778 15.6472 179.566 15.7103 179.457 15.8229C179.348 15.9355 179.085 16.0335 178.864 16.054C178.336 16.0795 177.174 16.4476 176.997 16.6295C176.922 16.7074 176.718 16.7619 176.548 16.7475C176.368 16.7419 176.054 16.8236 175.835 16.9465C175.615 17.0523 175.301 17.1511 175.13 17.1538C174.951 17.1481 174.739 17.2283 174.639 17.3322C174.538 17.4361 174.25 17.543 173.995 17.5812C173.74 17.6194 173.392 17.7528 173.207 17.8752C173.029 17.9888 172.784 18.0865 172.664 18.0714C172.553 18.0646 172.231 18.2062 171.944 18.3813C171.674 18.5561 171.302 18.6985 171.122 18.6928C170.96 18.6869 170.731 18.7673 170.631 18.8712C170.53 18.9751 170.175 19.1513 169.836 19.2591C169.496 19.3668 169.158 19.5257 169.082 19.6036C169.007 19.6816 168.592 19.8672 168.177 20.0188C167.762 20.1704 167.297 20.408 167.146 20.5639C167.003 20.7111 166.809 20.8251 166.732 20.8007C166.518 20.7615 166.104 20.9813 165.363 21.5388C165.009 21.8002 164.595 22.0371 164.458 22.0392C164.322 22.0414 163.866 22.3386 163.429 22.6866C163 23.026 162.485 23.3668 162.273 23.4298C162.069 23.5013 161.656 23.7722 161.353 24.0158C160.781 24.5024 159.81 25.0721 159.555 25.0932C159.469 25.0946 159.217 25.2862 158.999 25.5114C158.772 25.7452 158.233 26.129 157.802 26.3831C157.371 26.6202 156.722 27.0654 156.361 27.3696C155.999 27.6568 155.392 28.0928 155.012 28.3291C154.624 28.557 153.983 29.0276 153.58 29.3751C152.907 29.9486 152.604 30.1752 151.38 30.9365C151.144 31.0767 150.631 31.5197 150.219 31.91C149.128 32.9676 148.219 33.6813 147.795 33.8245C147.431 33.9582 147.422 33.9498 147.46 33.6679C147.521 33.2235 147.763 32.8871 148.169 32.693C148.363 32.5961 148.641 32.3956 148.776 32.257C148.926 32.1011 149.138 32.021 149.318 32.0437C149.591 32.0905 149.709 31.9863 150.925 30.7306C152.14 29.4748 152.25 29.3793 152.448 29.487C152.697 29.628 153.263 29.2864 153.342 28.9441C153.39 28.7386 153.356 28.7562 153.096 29.0077C152.82 29.2935 152.777 29.3027 152.62 29.0835C152.48 28.8811 152.412 28.8821 152.108 29.0916C151.923 29.231 151.722 29.4218 151.681 29.5333C151.631 29.6364 151.506 29.7663 151.387 29.8023C151.209 29.8819 151.209 29.8478 151.366 29.581C151.499 29.3571 151.372 29.4359 150.97 29.8687C150.652 30.1977 150.501 30.3877 150.653 30.2659C151.133 29.9087 151.043 30.1744 150.482 30.7717C150.013 31.2908 149.937 31.3347 149.976 31.1038C150.006 30.8646 149.93 30.9084 149.444 31.4107C149.125 31.7398 148.822 32.0005 148.754 31.9845C148.557 31.9621 147.265 33.2446 147.378 33.3537C147.439 33.4124 147.281 33.6451 146.996 33.9396C143.86 37.1786 140.065 41.3063 140.102 41.4422C140.129 41.5697 140.087 41.5959 139.933 41.5643C139.762 41.5329 139.729 41.5846 139.76 41.8996C139.79 42.2146 139.666 42.4297 138.965 43.3618C138.515 43.9658 138.021 44.545 137.861 44.6413C137.566 44.8422 137.308 45.247 137.421 45.3561C137.455 45.3896 137.769 45.2908 138.116 45.1404C138.59 44.9282 138.902 44.693 139.463 44.0957C140.193 43.3422 140.463 43.1674 140.391 43.5011C140.368 43.6293 140.42 43.6626 140.641 43.6591C140.965 43.6369 142.057 42.6133 145.597 39.078C146.586 38.0901 147.569 37.1791 147.755 37.0568C147.957 36.9342 148.403 36.5434 148.764 36.2051C149.611 35.3815 152.249 32.9691 152.729 32.5777C152.939 32.4123 153.453 32.0375 153.866 31.7495C154.288 31.47 154.793 31.0697 154.986 30.8705C155.304 30.5414 155.827 30.192 156.858 29.6128C157.069 29.4986 157.398 29.2461 157.582 29.0555C157.767 28.865 158.163 28.6114 158.468 28.5042C158.773 28.38 159.271 28.0736 159.591 27.8298C159.92 27.5772 160.392 27.2798 160.663 27.1732C160.926 27.0581 161.407 26.7691 161.727 26.5252C162.056 26.2898 162.461 26.0616 162.631 26.0248C162.81 25.9793 163.283 25.716 163.696 25.428C164.1 25.1316 164.582 24.8596 164.76 24.8142C164.938 24.7687 165.285 24.567 165.546 24.3668C165.798 24.1581 166.161 23.9562 166.357 23.9104C166.535 23.865 166.958 23.6365 167.286 23.384C167.623 23.1399 168.172 22.8327 168.511 22.7079C168.867 22.5829 169.248 22.3807 169.373 22.2508C169.491 22.1296 169.762 22.0059 169.966 21.9685C170.17 21.9482 170.517 21.7977 170.727 21.6323C170.938 21.484 171.26 21.3425 171.439 21.3311C171.618 21.3197 171.923 21.1955 172.117 21.0645C172.31 20.9335 172.708 20.7651 172.989 20.701C173.278 20.6282 173.582 20.5039 173.658 20.426C173.742 20.3394 174.072 20.1892 174.394 20.0988C174.708 20.017 175.039 19.8668 175.122 19.7802C175.206 19.6936 175.486 19.5953 175.741 19.5742C176.005 19.5444 176.285 19.4462 176.377 19.3509C176.469 19.2556 176.749 19.1574 176.996 19.1279C177.234 19.107 177.573 18.9822 177.751 18.8686C177.936 18.7462 178.225 18.6564 178.404 18.662C178.566 18.668 178.795 18.5876 178.895 18.4837C178.996 18.3797 179.344 18.2634 179.658 18.2157C179.982 18.1764 180.296 18.0776 180.38 17.991C180.455 17.9131 180.701 17.8495 180.932 17.8543C181.162 17.8592 181.416 17.7869 181.5 17.7003C181.592 17.605 181.881 17.4981 182.153 17.4597C182.425 17.4212 182.68 17.349 182.73 17.297C182.78 17.245 182.984 17.1906 183.188 17.1533C183.392 17.133 183.689 17.0344 183.833 16.9384C183.993 16.842 184.29 16.7776 184.512 16.774C184.725 16.7792 184.997 16.6896 185.097 16.5857C185.198 16.4817 185.487 16.4089 185.751 16.4303C186.016 16.4516 186.263 16.4221 186.305 16.3788C186.422 16.2576 187.814 15.8432 188.061 15.8648C188.189 15.8713 188.342 15.8347 188.392 15.7828C188.443 15.7308 188.901 15.6041 189.411 15.4937C189.929 15.3916 190.583 15.2192 190.88 15.1036C191.168 14.9967 191.448 14.9496 191.492 14.9915C191.544 15.0419 191.773 15.0126 191.994 14.9239C192.799 14.6296 193.325 14.5019 193.565 14.5322C193.693 14.5557 193.974 14.5086 194.186 14.4455C194.415 14.3822 194.83 14.2477 195.136 14.1575C195.433 14.076 195.748 14.0284 195.842 14.0695C195.937 14.1106 196.124 14.0736 196.251 14.0118C196.47 13.889 197.49 13.6851 198.894 13.4837C199.191 13.4363 199.471 13.3551 199.53 13.2945C199.58 13.2425 199.81 13.1962 200.04 13.2011C200.27 13.2059 200.508 13.151 200.567 13.0904C200.634 13.0211 200.762 13.0105 200.856 13.0516C200.968 13.0925 201.402 13.0429 201.835 12.9422C202.6 12.7766 203.246 12.681 204.157 12.6068C204.396 12.5859 204.625 12.5397 204.667 12.4963C204.709 12.453 204.853 12.4081 204.973 12.4062C205.083 12.3959 205.585 12.3282 206.079 12.2522C206.572 12.1761 207.091 12.1252 207.237 12.1484C207.493 12.1784 207.88 11.8994 207.759 11.782C207.716 11.74 207.153 11.749 206.497 11.785Z" fill="#747D86"/>
<path d="M148.196 37.4505C147.866 37.5837 144.402 41.1093 144.448 41.2705C144.466 41.3385 144.281 41.4949 143.976 41.6532C143.613 41.8381 143.125 42.2551 142.236 43.1732C141.482 43.9526 140.877 44.4909 140.682 44.5707C140.377 44.695 140.154 44.6303 140.314 44.4658C140.473 44.3012 140.25 44.2366 139.928 44.3611C139.572 44.5032 139.474 44.7264 139.805 44.6444C139.915 44.6171 140.001 44.6328 139.993 44.6585C139.985 44.7012 139.954 44.9064 139.906 45.1118C139.859 45.3342 139.88 45.5556 139.94 45.6143C140.01 45.6814 140.029 45.8005 140.004 45.8776C139.963 45.955 139.998 46.0227 140.075 46.03C140.152 46.0373 140.193 45.9428 140.166 45.8495C140.138 45.722 140.197 45.6443 140.307 45.617C140.587 45.5528 141.787 44.3314 141.8 44.1095C141.815 43.9899 142.15 43.5923 142.62 43.1585C143.065 42.7336 143.324 42.4481 143.206 42.5011C142.867 42.66 143.144 42.3742 143.6 42.1111C143.803 41.9885 144.115 41.7875 144.275 41.6741C144.621 41.4213 148.411 37.5409 148.417 37.4299C148.408 37.3874 148.315 37.3974 148.196 37.4505Z" fill="#747D86"/>
<path d="M135.978 45.7542C135.459 46.3423 135.058 46.8603 135.085 46.9196C135.12 46.9872 135.029 47.1507 134.894 47.2893C134.635 47.5577 134.689 47.7445 134.985 47.6118C135.078 47.5677 135.223 47.591 135.31 47.6749C135.397 47.7588 135.696 47.8137 135.969 47.8093C136.54 47.7917 136.738 47.9164 136.589 48.1917C136.506 48.3465 136.523 48.3462 136.675 48.2074C136.775 48.1034 136.833 47.9746 136.798 47.907C136.762 47.8393 136.937 47.5892 137.197 47.3208C137.936 46.5928 138.104 46.4536 138.275 46.468C138.369 46.4921 138.41 46.4317 138.382 46.2872C138.309 45.9643 138.223 45.9316 138.022 46.1395C137.921 46.2434 137.55 46.488 137.204 46.6897C136.579 47.0407 136.562 47.041 136.25 46.739C135.868 46.3699 135.901 46.25 136.63 45.4966C137.041 45.0722 137.141 44.9171 137.045 44.8248C136.941 44.7242 136.756 44.8806 135.978 45.7542Z" fill="#747D86"/>
<path d="M138.595 48.2876C137.856 48.9986 137.555 49.3615 137.499 49.5756C137.387 50.0207 137.277 50.0822 137.034 49.8473C136.913 49.7299 136.784 49.6722 136.734 49.7242C136.692 49.7675 136.728 49.8863 136.823 49.9786C136.971 50.1212 136.938 50.207 136.661 50.4928C136.418 50.7439 136.36 50.8727 136.456 50.965C136.551 51.0573 136.686 50.9869 137.005 50.6578C137.667 49.9736 137.665 50.3233 137.011 51.0329C136.24 51.8637 135.98 52.0811 135.842 52.015C135.696 51.9577 135.051 52.6245 135.155 52.7252C135.259 52.8259 135.915 52.3038 137.049 51.2369C137.914 50.4302 137.938 50.3871 137.774 50.2277C137.609 50.0684 137.642 49.9996 138.095 49.532C138.372 49.2462 138.563 48.9788 138.511 48.9284C138.459 48.8781 138.701 48.5588 139.095 48.1517C140.135 47.0778 139.727 47.1867 138.595 48.2876Z" fill="#747D86"/>
<path d="M242.914 181.444C242.528 181.271 242.011 180.955 241.768 180.72C241.526 180.502 240.923 180.103 240.424 179.855C239.925 179.607 239.339 179.224 239.105 178.998C238.767 178.671 238.561 178.589 237.955 178.504C237.536 178.451 237.152 178.466 237.085 178.535C237.018 178.605 236.747 178.694 236.492 178.732C236.219 178.771 235.88 178.879 235.72 178.975C235.576 179.071 235.424 179.125 235.389 179.091C235.354 179.057 235.167 179.078 234.963 179.132C234.751 179.195 234.377 179.252 234.113 179.282C233.858 179.303 233.603 179.358 233.569 179.393C233.536 179.428 232.882 179.566 232.108 179.689C231.342 179.821 230.671 179.959 230.612 180.02C230.529 180.106 230.257 180.162 229.091 180.291C228.835 180.313 228.589 180.376 228.53 180.437C228.48 180.489 228.25 180.535 228.029 180.539C227.816 180.55 227.109 180.621 226.471 180.691C225.841 180.77 225.143 180.849 224.931 180.878C224.718 180.907 224.343 180.947 224.097 180.993C223.349 181.125 217.313 181.221 216.97 181.107C216.79 181.05 216.594 181.062 216.527 181.131C216.351 181.313 217.026 181.916 217.298 181.827C217.416 181.791 217.699 181.863 217.931 181.987C218.163 182.094 218.506 182.191 218.677 182.205C218.856 182.211 219.138 182.283 219.302 182.392C219.466 182.483 219.628 182.523 219.679 182.471C219.721 182.427 219.96 182.475 220.218 182.573C220.458 182.672 220.749 182.735 220.851 182.699C220.952 182.664 221.277 182.71 221.585 182.79C222.699 183.096 222.845 183.137 223.194 183.14C223.672 183.149 224.21 183.2 225.389 183.335C225.927 183.403 226.806 183.466 227.327 183.5C228.394 183.543 232.861 183.489 233.926 183.412C234.3 183.389 234.642 183.4 234.685 183.442C234.728 183.484 234.856 183.457 234.974 183.404C235.092 183.334 235.424 183.269 235.731 183.247C236.02 183.225 236.675 183.155 237.169 183.079C237.671 183.011 238.241 182.942 238.428 182.939C238.812 182.925 239.365 182.839 241.218 182.503C241.839 182.399 242.384 182.339 242.427 182.381C242.47 182.423 242.615 182.395 242.758 182.316C242.885 182.237 243.173 182.147 243.386 182.101C244.057 181.98 244.005 181.895 242.914 181.444Z" fill="#747D86"/>
<path d="M153.204 164.317C153.162 164.361 153.025 164.312 152.904 164.194C152.782 164.077 152.654 164.019 152.603 164.071C152.561 164.114 152.356 164.066 152.167 163.967C151.848 163.793 151.866 163.827 152.316 164.246C152.688 164.573 152.843 164.673 152.893 164.552C152.934 164.458 153.054 164.507 153.262 164.709C153.444 164.885 153.514 165.02 153.429 165.038C153.344 165.057 153.467 165.243 153.753 165.519C154.082 165.838 154.202 165.904 154.166 165.751C154.12 165.573 154.146 165.564 154.276 165.69C154.354 165.766 154.389 165.867 154.339 165.919C154.213 166.049 154.906 166.669 155.092 166.598C155.219 166.553 155.237 166.57 155.196 166.699C155.106 166.93 155.261 167.03 155.782 167.064L156.252 167.1L154.77 165.665C153.843 164.768 153.255 164.265 153.204 164.317Z" fill="#747D86"/>
<path d="M66.2168 106.084L66.2168 120L61.5293 120L61.5293 84.4531L74.6396 84.4531C78.5296 84.4531 81.5732 85.446 83.7705 87.4316C85.984 89.4173 87.0908 92.0459 87.0908 95.3174C87.0908 98.7679 86.0085 101.429 83.8438 103.301C81.6953 105.156 78.611 106.084 74.5908 106.084L66.2168 106.084ZM66.2168 102.251L74.6396 102.251C77.1462 102.251 79.0667 101.665 80.4014 100.493C81.736 99.305 82.4033 97.596 82.4033 95.3662C82.4033 93.2503 81.736 91.5576 80.4014 90.2881C79.0667 89.0186 77.2357 88.3594 74.9082 88.3105L66.2168 88.3105L66.2168 102.251ZM108.38 120C108.119 119.479 107.908 118.551 107.745 117.217C105.646 119.398 103.139 120.488 100.226 120.488C97.6214 120.488 95.4811 119.756 93.8047 118.291C92.1445 116.81 91.3145 114.938 91.3145 112.676C91.3145 109.925 92.3561 107.793 94.4395 106.279C96.5391 104.749 99.485 103.984 103.277 103.984L107.672 103.984L107.672 101.909C107.672 100.33 107.2 99.0771 106.256 98.1494C105.312 97.2054 103.92 96.7334 102.081 96.7334C100.47 96.7334 99.1188 97.1403 98.0283 97.9541C96.9378 98.7679 96.3926 99.7526 96.3926 100.908L91.8516 100.908C91.8516 99.5898 92.3154 98.3203 93.2432 97.0996C94.1872 95.8626 95.4567 94.8861 97.0518 94.1699C98.6631 93.4538 100.429 93.0957 102.35 93.0957C105.393 93.0957 107.778 93.8607 109.503 95.3906C111.228 96.9043 112.123 98.9958 112.188 101.665L112.188 113.823C112.188 116.248 112.498 118.177 113.116 119.609L113.116 120L108.38 120ZM100.885 116.558C102.301 116.558 103.644 116.191 104.913 115.459C106.183 114.727 107.102 113.774 107.672 112.603L107.672 107.183L104.132 107.183C98.598 107.183 95.8311 108.802 95.8311 112.041C95.8311 113.457 96.3031 114.564 97.2471 115.361C98.1911 116.159 99.4036 116.558 100.885 116.558ZM123.541 93.584L123.688 96.9043C125.706 94.3652 128.342 93.0957 131.598 93.0957C137.18 93.0957 139.996 96.2451 140.045 102.544L140.045 120L135.528 120L135.528 102.52C135.512 100.615 135.073 99.2074 134.21 98.2959C133.364 97.3844 132.037 96.9287 130.23 96.9287C128.766 96.9287 127.48 97.3193 126.373 98.1006C125.266 98.8818 124.404 99.9072 123.785 101.177L123.785 120L119.269 120L119.269 93.584L123.541 93.584ZM145.66 106.548C145.66 103.96 146.165 101.632 147.174 99.5654C148.199 97.4984 149.615 95.9033 151.422 94.7803C153.245 93.6572 155.32 93.0957 157.647 93.0957C161.244 93.0957 164.15 94.3408 166.363 96.8311C168.593 99.3213 169.708 102.633 169.708 106.768L169.708 107.085C169.708 109.657 169.212 111.968 168.219 114.019C167.242 116.053 165.834 117.64 163.995 118.779C162.172 119.919 160.073 120.488 157.696 120.488C154.116 120.488 151.21 119.243 148.98 116.753C146.767 114.263 145.66 110.967 145.66 106.865L145.66 106.548ZM150.201 107.085C150.201 110.015 150.877 112.367 152.228 114.141C153.595 115.915 155.418 116.802 157.696 116.802C159.991 116.802 161.814 115.907 163.165 114.116C164.516 112.31 165.191 109.787 165.191 106.548C165.191 103.651 164.5 101.307 163.116 99.5166C161.749 97.71 159.926 96.8066 157.647 96.8066C155.418 96.8066 153.619 97.6937 152.252 99.4678C150.885 101.242 150.201 103.781 150.201 107.085ZM188.141 97.6367C187.457 97.5228 186.716 97.4658 185.919 97.4658C182.957 97.4658 180.947 98.7272 179.889 101.25L179.889 120L175.372 120L175.372 93.584L179.767 93.584L179.84 96.6357C181.321 94.2757 183.421 93.0957 186.139 93.0957C187.018 93.0957 187.685 93.2096 188.141 93.4375L188.141 97.6367ZM207.647 120C207.387 119.479 207.175 118.551 207.013 117.217C204.913 119.398 202.407 120.488 199.493 120.488C196.889 120.488 194.749 119.756 193.072 118.291C191.412 116.81 190.582 114.938 190.582 112.676C190.582 109.925 191.624 107.793 193.707 106.279C195.807 104.749 198.753 103.984 202.545 103.984L206.939 103.984L206.939 101.909C206.939 100.33 206.467 99.0771 205.523 98.1494C204.579 97.2054 203.188 96.7334 201.349 96.7334C199.737 96.7334 198.386 97.1403 197.296 97.9541C196.205 98.7679 195.66 99.7526 195.66 100.908L191.119 100.908C191.119 99.5898 191.583 98.3203 192.511 97.0996C193.455 95.8626 194.724 94.8861 196.319 94.1699C197.931 93.4538 199.697 93.0957 201.617 93.0957C204.661 93.0957 207.045 93.8607 208.771 95.3906C210.496 96.9043 211.391 98.9958 211.456 101.665L211.456 113.823C211.456 116.248 211.765 118.177 212.384 119.609L212.384 120L207.647 120ZM200.152 116.558C201.568 116.558 202.911 116.191 204.181 115.459C205.45 114.727 206.37 113.774 206.939 112.603L206.939 107.183L203.399 107.183C197.866 107.183 195.099 108.802 195.099 112.041C195.099 113.457 195.571 114.564 196.515 115.361C197.459 116.159 198.671 116.558 200.152 116.558ZM222.784 93.584L222.906 96.5137C224.843 94.235 227.455 93.0957 230.743 93.0957C234.438 93.0957 236.952 94.5117 238.287 97.3437C239.166 96.0742 240.305 95.0488 241.705 94.2676C243.121 93.4863 244.789 93.0957 246.71 93.0957C252.504 93.0957 255.45 96.1637 255.548 102.3L255.548 120L251.031 120L251.031 102.568C251.031 100.68 250.6 99.2725 249.737 98.3447C248.875 97.4007 247.426 96.9287 245.392 96.9287C243.715 96.9287 242.324 97.4333 241.217 98.4424C240.11 99.4352 239.467 100.778 239.288 102.471L239.288 120L234.747 120L234.747 102.69C234.747 98.8493 232.867 96.9287 229.107 96.9287C226.145 96.9287 224.119 98.1901 223.028 100.713L223.028 120L218.512 120L218.512 93.584L222.784 93.584ZM278.692 120C278.432 119.479 278.22 118.551 278.058 117.217C275.958 119.398 273.451 120.488 270.538 120.488C267.934 120.488 265.794 119.756 264.117 118.291C262.457 116.81 261.627 114.938 261.627 112.676C261.627 109.925 262.669 107.793 264.752 106.279C266.852 104.749 269.798 103.984 273.59 103.984L277.984 103.984L277.984 101.909C277.984 100.33 277.512 99.0771 276.568 98.1494C275.624 97.2054 274.233 96.7334 272.394 96.7334C270.782 96.7334 269.431 97.1403 268.341 97.9541C267.25 98.7679 266.705 99.7526 266.705 100.908L262.164 100.908C262.164 99.5898 262.628 98.3203 263.556 97.0996C264.5 95.8626 265.769 94.8861 267.364 94.1699C268.976 93.4538 270.742 93.0957 272.662 93.0957C275.706 93.0957 278.09 93.8607 279.815 95.3906C281.541 96.9043 282.436 98.9958 282.501 101.665L282.501 113.823C282.501 116.248 282.81 118.177 283.429 119.609L283.429 120L278.692 120ZM271.197 116.558C272.613 116.558 273.956 116.191 275.226 115.459C276.495 114.727 277.415 113.774 277.984 112.603L277.984 107.183L274.444 107.183C268.91 107.183 266.144 108.802 266.144 112.041C266.144 113.457 266.616 114.564 267.56 115.361C268.504 116.159 269.716 116.558 271.197 116.558Z" fill="white"/>
<path d="M322.931 111.26C322.931 109.29 322.239 107.736 320.855 106.597C319.472 105.441 316.941 104.351 313.263 103.325C309.584 102.284 306.899 101.152 305.206 99.9316C302.797 98.2064 301.593 95.944 301.593 93.1445C301.593 90.4264 302.708 88.221 304.938 86.5283C307.184 84.8193 310.048 83.9648 313.531 83.9648C315.891 83.9648 317.999 84.4206 319.854 85.332C321.726 86.2435 323.175 87.513 324.2 89.1406C325.226 90.7682 325.738 92.583 325.738 94.585L322.711 94.585C322.711 92.1598 321.881 90.2148 320.221 88.75C318.561 87.2689 316.331 86.5283 313.531 86.5283C310.813 86.5283 308.648 87.1387 307.037 88.3594C305.426 89.5638 304.62 91.1426 304.62 93.0957C304.62 94.9023 305.344 96.3753 306.793 97.5146C308.242 98.654 310.561 99.6631 313.751 100.542C316.941 101.405 319.358 102.308 321.002 103.252C322.646 104.18 323.883 105.295 324.713 106.597C325.543 107.899 325.958 109.437 325.958 111.211C325.958 114.01 324.835 116.257 322.589 117.949C320.359 119.642 317.413 120.488 313.751 120.488C311.244 120.488 308.941 120.041 306.842 119.146C304.758 118.25 303.172 116.997 302.081 115.386C301.007 113.774 300.47 111.927 300.47 109.844L303.473 109.844C303.473 112.35 304.409 114.328 306.28 115.776C308.152 117.225 310.642 117.949 313.751 117.949C316.518 117.949 318.74 117.339 320.416 116.118C322.092 114.897 322.931 113.278 322.931 111.26ZM341.998 120.488C339.752 120.488 337.717 119.935 335.895 118.828C334.088 117.721 332.68 116.183 331.671 114.214C330.662 112.228 330.157 110.007 330.157 107.549L330.157 106.499C330.157 103.96 330.646 101.673 331.622 99.6387C332.615 97.6042 333.99 96.0091 335.748 94.8535C337.506 93.6816 339.41 93.0957 341.461 93.0957C344.667 93.0957 347.206 94.1943 349.078 96.3916C350.966 98.5726 351.91 101.559 351.91 105.352L351.91 106.987L333.063 106.987L333.063 107.549C333.063 110.544 333.917 113.042 335.626 115.044C337.351 117.03 339.516 118.022 342.12 118.022C343.683 118.022 345.058 117.738 346.246 117.168C347.451 116.598 348.541 115.687 349.518 114.434L351.349 115.825C349.2 118.934 346.083 120.488 341.998 120.488ZM341.461 95.5859C339.264 95.5859 337.408 96.3916 335.895 98.0029C334.397 99.6143 333.486 101.779 333.16 104.497L349.005 104.497L349.005 104.18C348.924 101.641 348.199 99.5736 346.832 97.9785C345.465 96.3835 343.674 95.5859 341.461 95.5859ZM374.273 120C373.98 119.17 373.793 117.941 373.712 116.313C372.687 117.648 371.376 118.682 369.781 119.414C368.202 120.13 366.526 120.488 364.752 120.488C362.213 120.488 360.154 119.78 358.575 118.364C357.013 116.948 356.231 115.158 356.231 112.993C356.231 110.422 357.298 108.387 359.43 106.89C361.578 105.392 364.565 104.644 368.39 104.644L373.688 104.644L373.688 101.641C373.688 99.7526 373.102 98.2715 371.93 97.1973C370.774 96.1068 369.081 95.5615 366.852 95.5615C364.817 95.5615 363.132 96.0824 361.798 97.124C360.463 98.1657 359.796 99.4189 359.796 100.884L356.866 100.859C356.866 98.7598 357.843 96.945 359.796 95.415C361.749 93.8688 364.15 93.0957 366.998 93.0957C369.944 93.0957 372.263 93.8363 373.956 95.3174C375.665 96.7822 376.544 98.833 376.593 101.47L376.593 113.97C376.593 116.525 376.861 118.437 377.398 119.707L377.398 120L374.273 120ZM365.094 117.9C367.047 117.9 368.788 117.428 370.318 116.484C371.865 115.54 372.988 114.279 373.688 112.7L373.688 106.89L368.463 106.89C365.549 106.922 363.271 107.459 361.627 108.501C359.983 109.526 359.161 110.942 359.161 112.749C359.161 114.23 359.706 115.459 360.797 116.436C361.904 117.412 363.336 117.9 365.094 117.9Z" fill="#545C61"/>
<path d="M199.856 156.132C198.584 156.132 197.432 155.772 196.4 155.052C195.392 154.356 194.588 153.336 193.988 151.992C193.412 150.624 193.124 149.028 193.124 147.204C193.124 144.204 193.88 141.132 195.392 137.988C196.904 134.844 198.812 132.252 201.116 130.212C203.444 128.148 205.712 127.116 207.92 127.116C209.192 127.116 210.128 127.5 210.728 128.268C211.352 129.036 211.664 130.008 211.664 131.184C211.664 132.024 211.52 132.852 211.232 133.668C210.944 134.484 210.548 135.156 210.044 135.684C209.564 136.188 209.048 136.44 208.496 136.44C208.016 136.44 207.644 136.164 207.38 135.612C207.74 135.372 208.136 134.928 208.568 134.28C209.024 133.632 209.408 132.924 209.72 132.156C210.032 131.388 210.188 130.704 210.188 130.104C210.188 129.528 210.008 129.072 209.648 128.736C209.312 128.376 208.772 128.196 208.028 128.196C206.372 128.196 204.596 129.276 202.7 131.436C200.804 133.596 199.208 136.236 197.912 139.356C196.64 142.476 196.004 145.332 196.004 147.924C196.004 150.06 196.448 151.752 197.336 153C198.248 154.272 199.412 154.908 200.828 154.908C202.028 154.908 203.156 154.344 204.212 153.216C205.268 152.088 206.132 150.672 206.804 148.968C207.5 147.264 207.908 145.608 208.028 144C206.636 143.688 205.4 143.532 204.32 143.532L202.124 143.568C202.412 142.32 203.228 141.696 204.572 141.696C205.148 141.696 205.724 141.78 206.3 141.948C206.9 142.116 207.716 142.38 208.748 142.74C209.348 143.004 209.984 143.22 210.656 143.388L210.404 144.54C209.564 146.748 208.988 148.524 208.676 149.868C208.364 151.188 208.208 152.34 208.208 153.324C208.208 153.708 208.232 154.26 208.28 154.98C208.328 155.46 208.352 155.844 208.352 156.132C207.056 155.628 206.408 154.764 206.408 153.54C206.408 153.012 206.492 152.46 206.66 151.884C204.62 154.716 202.352 156.132 199.856 156.132ZM214.966 154.08C214.174 154.08 213.526 153.72 213.022 153C212.518 152.304 212.266 151.452 212.266 150.444C212.266 149.556 212.446 148.464 212.806 147.168C213.19 145.848 213.634 144.708 214.138 143.748C214.666 142.764 215.098 142.272 215.434 142.272C215.578 142.272 215.782 142.344 216.046 142.488C216.334 142.632 216.574 142.8 216.766 142.992C216.262 143.784 215.734 144.924 215.182 146.412C214.63 147.876 214.354 149.148 214.354 150.228C214.354 150.78 214.438 151.32 214.606 151.848C214.798 152.376 215.146 152.64 215.65 152.64C216.49 152.64 217.402 151.872 218.386 150.336C219.394 148.776 220.474 146.808 221.626 144.432L222.202 143.244C223.354 143.46 223.93 143.772 223.93 144.18C223.93 144.228 223.87 144.396 223.75 144.684C223.654 144.948 223.558 145.188 223.462 145.404C222.91 146.628 222.442 147.78 222.058 148.86C221.698 149.916 221.518 150.816 221.518 151.56C221.518 152.52 221.914 153 222.706 153C223.234 153 223.858 152.772 224.578 152.316C225.298 151.836 226.03 151.152 226.774 150.264C227.518 149.376 228.166 148.344 228.718 147.168L229.186 147.492C228.682 148.764 228.022 149.904 227.206 150.912C226.414 151.896 225.55 152.664 224.614 153.216C223.678 153.792 222.79 154.08 221.95 154.08C220.27 154.08 219.43 153.192 219.43 151.416C219.43 150.936 219.514 150.336 219.682 149.616C218.914 150.984 218.146 152.076 217.378 152.892C216.61 153.684 215.806 154.08 214.966 154.08ZM231.939 154.584C230.523 154.584 229.431 154.188 228.663 153.396C227.919 152.628 227.547 151.632 227.547 150.408C227.547 148.992 228.015 147.468 228.951 145.836C229.887 144.204 231.063 142.836 232.479 141.732C233.919 140.604 235.323 140.04 236.691 140.04C238.179 140.04 238.923 140.772 238.923 142.236C238.923 143.412 238.479 144.516 237.591 145.548C236.703 146.556 235.563 147.384 234.171 148.032C232.779 148.68 231.387 149.076 229.995 149.22C229.899 149.628 229.851 150.06 229.851 150.516C229.851 151.38 230.067 152.1 230.499 152.676C230.931 153.252 231.663 153.54 232.695 153.54C234.159 153.54 235.635 152.928 237.123 151.704C238.611 150.48 239.823 148.968 240.759 147.168L241.191 147.492C240.231 149.628 238.899 151.344 237.195 152.64C235.491 153.936 233.739 154.584 231.939 154.584ZM230.175 148.536C231.183 148.176 232.239 147.672 233.343 147.024C234.447 146.376 235.383 145.62 236.151 144.756C236.943 143.868 237.339 142.944 237.339 141.984C237.339 141.696 237.279 141.492 237.159 141.372C237.063 141.228 236.871 141.156 236.583 141.156C235.839 141.156 235.023 141.528 234.135 142.272C233.271 143.016 232.467 143.964 231.723 145.116C231.003 146.268 230.487 147.408 230.175 148.536ZM243.819 154.836C242.259 154.836 241.119 154.368 240.399 153.432C239.679 152.496 239.319 151.392 239.319 150.12C239.319 149.16 239.487 148.488 239.823 148.104C240.159 147.696 240.519 147.408 240.903 147.24C241.311 147.072 241.551 146.952 241.623 146.88C243.159 145.2 244.347 143.46 245.187 141.66L245.187 141.228C245.187 140.412 245.319 139.8 245.583 139.392C245.871 138.984 246.207 138.78 246.591 138.78C246.783 138.78 246.927 138.828 247.023 138.924C247.119 138.996 247.167 139.104 247.167 139.248C247.167 139.344 247.131 139.548 247.059 139.86C246.987 140.148 246.951 140.472 246.951 140.832C246.951 141.312 247.011 141.828 247.131 142.38C247.275 142.908 247.491 143.604 247.779 144.468C248.115 145.5 248.367 146.4 248.535 147.168C248.727 147.936 248.823 148.716 248.823 149.508C248.823 150.132 248.751 150.72 248.607 151.272C249.471 151.128 250.275 150.744 251.019 150.12C251.763 149.472 252.471 148.5 253.143 147.204L253.467 147.564C253.035 148.812 252.375 149.796 251.487 150.516C250.599 151.236 249.579 151.68 248.427 151.848C248.067 152.832 247.479 153.576 246.663 154.08C245.847 154.584 244.899 154.836 243.819 154.836ZM246.339 151.236C246.435 150.612 246.483 150.048 246.483 149.544C246.483 148.824 246.423 148.104 246.303 147.384C246.183 146.664 246.003 145.836 245.763 144.9C245.547 143.94 245.415 143.316 245.367 143.028C244.143 145.044 242.979 146.604 241.875 147.708C242.259 148.548 242.835 149.292 243.603 149.94C244.395 150.588 245.307 151.02 246.339 151.236ZM243.891 153.576C244.995 153.576 245.751 152.988 246.159 151.812C245.199 151.62 244.323 151.248 243.531 150.696C242.739 150.12 242.139 149.496 241.731 148.824C241.203 148.848 240.939 149.268 240.939 150.084C240.939 150.996 241.203 151.812 241.731 152.532C242.283 153.228 243.003 153.576 243.891 153.576ZM255.509 154.656C253.373 154.656 252.305 153.468 252.305 151.092C252.305 150.06 252.485 148.788 252.845 147.276C253.229 145.74 253.745 144.12 254.393 142.416C253.817 142.32 253.385 142.224 253.097 142.128L253.097 141.48C253.961 141.576 254.489 141.624 254.681 141.624C255.737 138.888 256.865 136.524 258.065 134.532C259.289 132.516 260.249 131.508 260.945 131.508C261.137 131.508 261.305 131.58 261.449 131.724C261.617 131.868 261.701 132.06 261.701 132.3C261.701 132.612 261.545 133.068 261.233 133.668C260.945 134.268 260.441 135.192 259.721 136.44C259.601 136.68 259.229 137.352 258.605 138.456C257.981 139.536 257.417 140.628 256.913 141.732L258.245 141.732C260.237 141.732 261.953 141.66 263.393 141.516L263.393 142.164C260.777 142.452 258.665 142.596 257.057 142.596L256.517 142.596C255.197 145.62 254.537 148.236 254.537 150.444C254.537 151.476 254.693 152.22 255.005 152.676C255.317 153.108 255.833 153.324 256.553 153.324C257.777 153.324 258.989 152.784 260.189 151.704C261.389 150.6 262.457 149.088 263.393 147.168L263.861 147.528C262.973 149.616 261.773 151.332 260.261 152.676C258.749 153.996 257.165 154.656 255.509 154.656ZM274.046 156.132C274.358 154.38 274.79 152.472 275.342 150.408C275.894 148.344 276.782 145.44 278.006 141.696L275.63 141.948C275.654 140.892 276.65 140.16 278.618 139.752C279.506 137.04 280.526 134.028 281.678 130.716C281.702 130.644 281.786 130.38 281.93 129.924C282.098 129.468 282.182 129.024 282.182 128.592C282.182 128.4 282.146 128.268 282.074 128.196C282.026 128.124 281.894 128.088 281.678 128.088C280.934 128.088 280.214 128.472 279.518 129.24C278.846 130.008 278.294 130.932 277.862 132.012C277.43 133.092 277.214 134.04 277.214 134.856C277.214 135.312 277.274 135.72 277.394 136.08C276.65 136.08 276.098 135.9 275.738 135.54C275.402 135.156 275.234 134.652 275.234 134.028C275.234 132.996 275.63 131.94 276.422 130.86C277.238 129.756 278.222 128.856 279.374 128.16C280.526 127.44 281.546 127.08 282.434 127.08C283.034 127.08 283.454 127.248 283.694 127.584C283.958 127.896 284.09 128.304 284.09 128.808C284.09 129.216 283.994 129.732 283.802 130.356L280.994 139.5C281.858 139.452 282.554 139.428 283.082 139.428C284.954 139.428 286.994 139.536 289.202 139.752C289.946 137.28 290.654 135.024 291.326 132.984C292.022 130.944 292.526 129.6 292.838 128.952C293.414 127.704 294.074 127.08 294.818 127.08C294.338 128.352 293.75 130.164 293.054 132.516C292.382 134.868 291.71 137.328 291.038 139.896C291.278 139.896 291.662 139.92 292.19 139.968C292.91 140.016 293.426 140.04 293.738 140.04C293.258 140.544 292.79 140.868 292.334 141.012C291.878 141.132 291.338 141.192 290.714 141.192C290.21 143.256 289.838 144.9 289.598 146.124C288.806 149.892 288.41 152.796 288.41 154.836C288.41 155.268 288.434 155.7 288.482 156.132C287.57 156.036 286.922 155.772 286.538 155.34C286.178 154.932 285.998 154.26 285.998 153.324C285.998 151.932 286.286 150.12 286.862 147.888C287.246 146.304 287.882 144.084 288.77 141.228C286.85 141.228 285.218 141.252 283.874 141.3C282.554 141.324 281.39 141.384 280.382 141.48C278.318 147.984 277.034 152.1 276.53 153.828C276.29 154.596 275.93 155.172 275.45 155.556C274.97 155.94 274.502 156.132 274.046 156.132ZM295.82 154.152C294.836 154.152 294.116 153.852 293.66 153.252C293.204 152.652 292.976 151.86 292.976 150.876C292.976 149.892 293.18 148.86 293.588 147.78C293.996 146.7 294.524 145.8 295.172 145.08C295.82 144.36 296.468 144 297.116 144C297.332 144 297.584 144.06 297.872 144.18C297.584 144.42 297.236 144.948 296.828 145.764C296.42 146.58 296.06 147.456 295.748 148.392C295.46 149.304 295.316 150.048 295.316 150.624C295.316 151.992 295.748 152.676 296.612 152.676C297.116 152.676 297.716 152.412 298.412 151.884C299.108 151.356 299.792 150.66 300.464 149.796C299.792 149.244 299.264 148.524 298.88 147.636C298.52 146.748 298.34 145.824 298.34 144.864C298.34 143.616 298.652 142.548 299.276 141.66C299.924 140.772 300.788 140.328 301.868 140.328C302.78 140.328 303.416 140.58 303.776 141.084C304.16 141.564 304.352 142.236 304.352 143.1C304.352 144.012 304.124 145.044 303.668 146.196C303.236 147.324 302.66 148.428 301.94 149.508C302.372 149.748 302.828 149.868 303.308 149.868C304.004 149.868 304.724 149.664 305.468 149.256C306.212 148.824 306.776 148.164 307.16 147.276L307.592 147.636C307.136 148.692 306.488 149.472 305.648 149.976C304.808 150.48 303.944 150.732 303.056 150.732C302.408 150.732 301.832 150.612 301.328 150.372C300.464 151.5 299.54 152.412 298.556 153.108C297.596 153.804 296.684 154.152 295.82 154.152ZM301.112 148.86C301.736 147.924 302.24 146.976 302.624 146.016C303.008 145.032 303.2 144.132 303.2 143.316C303.2 142.644 303.092 142.14 302.876 141.804C302.684 141.468 302.432 141.3 302.12 141.3C301.784 141.3 301.436 141.468 301.076 141.804C300.74 142.116 300.452 142.56 300.212 143.136C299.996 143.688 299.888 144.3 299.888 144.972C299.888 145.716 299.984 146.436 300.176 147.132C300.392 147.804 300.704 148.38 301.112 148.86ZM309.184 154.08C308.392 154.08 307.744 153.72 307.24 153C306.736 152.304 306.484 151.452 306.484 150.444C306.484 149.556 306.664 148.464 307.024 147.168C307.408 145.848 307.852 144.708 308.356 143.748C308.884 142.764 309.316 142.272 309.652 142.272C309.796 142.272 310 142.344 310.264 142.488C310.552 142.632 310.792 142.8 310.984 142.992C310.48 143.784 309.952 144.924 309.4 146.412C308.848 147.876 308.572 149.148 308.572 150.228C308.572 150.78 308.656 151.32 308.824 151.848C309.016 152.376 309.364 152.64 309.868 152.64C310.708 152.64 311.62 151.872 312.604 150.336C313.612 148.776 314.692 146.808 315.844 144.432L316.42 143.244C317.572 143.46 318.148 143.772 318.148 144.18C318.148 144.228 318.088 144.396 317.968 144.684C317.872 144.948 317.776 145.188 317.68 145.404C317.128 146.628 316.66 147.78 316.276 148.86C315.916 149.916 315.736 150.816 315.736 151.56C315.736 152.52 316.132 153 316.924 153C317.452 153 318.076 152.772 318.796 152.316C319.516 151.836 320.248 151.152 320.992 150.264C321.736 149.376 322.384 148.344 322.936 147.168L323.404 147.492C322.9 148.764 322.24 149.904 321.424 150.912C320.632 151.896 319.768 152.664 318.832 153.216C317.896 153.792 317.008 154.08 316.168 154.08C314.488 154.08 313.648 153.192 313.648 151.416C313.648 150.936 313.732 150.336 313.9 149.616C313.132 150.984 312.364 152.076 311.596 152.892C310.828 153.684 310.024 154.08 309.184 154.08ZM326.05 154.836C324.49 154.836 323.35 154.368 322.63 153.432C321.91 152.496 321.55 151.392 321.55 150.12C321.55 149.16 321.718 148.488 322.054 148.104C322.39 147.696 322.75 147.408 323.134 147.24C323.542 147.072 323.782 146.952 323.854 146.88C325.39 145.2 326.578 143.46 327.418 141.66L327.418 141.228C327.418 140.412 327.55 139.8 327.814 139.392C328.102 138.984 328.438 138.78 328.822 138.78C329.014 138.78 329.158 138.828 329.254 138.924C329.35 138.996 329.398 139.104 329.398 139.248C329.398 139.344 329.362 139.548 329.29 139.86C329.218 140.148 329.182 140.472 329.182 140.832C329.182 141.312 329.242 141.828 329.362 142.38C329.506 142.908 329.722 143.604 330.01 144.468C330.346 145.5 330.598 146.4 330.766 147.168C330.958 147.936 331.054 148.716 331.054 149.508C331.054 150.132 330.982 150.72 330.838 151.272C331.702 151.128 332.506 150.744 333.25 150.12C333.994 149.472 334.702 148.5 335.374 147.204L335.698 147.564C335.266 148.812 334.606 149.796 333.718 150.516C332.83 151.236 331.81 151.68 330.658 151.848C330.298 152.832 329.71 153.576 328.894 154.08C328.078 154.584 327.13 154.836 326.05 154.836ZM328.57 151.236C328.666 150.612 328.714 150.048 328.714 149.544C328.714 148.824 328.654 148.104 328.534 147.384C328.414 146.664 328.234 145.836 327.994 144.9C327.778 143.94 327.646 143.316 327.598 143.028C326.374 145.044 325.21 146.604 324.106 147.708C324.49 148.548 325.066 149.292 325.834 149.94C326.626 150.588 327.538 151.02 328.57 151.236ZM326.122 153.576C327.226 153.576 327.982 152.988 328.39 151.812C327.43 151.62 326.554 151.248 325.762 150.696C324.97 150.12 324.37 149.496 323.962 148.824C323.434 148.848 323.17 149.268 323.17 150.084C323.17 150.996 323.434 151.812 323.962 152.532C324.514 153.228 325.234 153.576 326.122 153.576ZM338.568 154.584C337.152 154.584 336.06 154.188 335.292 153.396C334.548 152.628 334.176 151.632 334.176 150.408C334.176 148.992 334.644 147.468 335.58 145.836C336.516 144.204 337.692 142.836 339.108 141.732C340.548 140.604 341.952 140.04 343.32 140.04C344.808 140.04 345.552 140.772 345.552 142.236C345.552 143.412 345.108 144.516 344.22 145.548C343.332 146.556 342.192 147.384 340.8 148.032C339.408 148.68 338.016 149.076 336.624 149.22C336.528 149.628 336.48 150.06 336.48 150.516C336.48 151.38 336.696 152.1 337.128 152.676C337.56 153.252 338.292 153.54 339.324 153.54C340.788 153.54 342.264 152.928 343.752 151.704C345.24 150.48 346.452 148.968 347.388 147.168L347.82 147.492C346.86 149.628 345.528 151.344 343.824 152.64C342.12 153.936 340.368 154.584 338.568 154.584ZM336.804 148.536C337.812 148.176 338.868 147.672 339.972 147.024C341.076 146.376 342.012 145.62 342.78 144.756C343.572 143.868 343.968 142.944 343.968 141.984C343.968 141.696 343.908 141.492 343.788 141.372C343.692 141.228 343.5 141.156 343.212 141.156C342.468 141.156 341.652 141.528 340.764 142.272C339.9 143.016 339.096 143.964 338.352 145.116C337.632 146.268 337.116 147.408 336.804 148.536Z" fill="#545C61"/>
</svg>
