<svg xmlns="http://www.w3.org/2000/svg" width="35.281" height="35.25" viewBox="0 0 35.281 35.25">
  <defs>
    <style>
      .cls-1 {
        fill: #fff;
        fill-rule: evenodd;
      }
    </style>
  </defs>
  <path id="Compose_-_alt" data-name="Compose - alt" class="cls-1" d="M242.329,450.781l-3.28,3.279-6.326-6.132,3.377-3.377A4.4,4.4,0,0,1,242.329,450.781Zm-5.2,5.2L223.572,469.5l-8.584,2.389,2.354-8.618,13.48-13.446Zm5.2-5.2-3.28,3.279-6.326-6.132,3.377-3.377A4.4,4.4,0,0,1,242.329,450.781Zm-5.2,5.2L223.572,469.5l-8.584,2.389,2.353-8.618,13.481-13.446Zm2.086,4.143v11.769a2.2,2.2,0,0,1-2.2,2.2H214.988a2.2,2.2,0,0,1-2.2-2.2V449.868a2.2,2.2,0,0,1,2.2-2.2h11.756l4.414-4.4h-16.17a6.607,6.607,0,0,0-6.607,6.607v22.024a6.606,6.606,0,0,0,6.607,6.607h22.024a6.606,6.606,0,0,0,6.607-6.607V455.719Z" transform="translate(-208.375 -443.25)"/>
</svg>
